<?xml version="1.0" encoding="utf-8"?>
<!-- Generator: Adobe Illustrator 25.4.1, SVG Export Plug-In . SVG Version: 6.00 Build 0)  -->
<svg version="1.1" id="Livello_1" xmlns="http://www.w3.org/2000/svg" xmlns:xlink="http://www.w3.org/1999/xlink" x="0px" y="0px"
	 viewBox="0 0 200 200" style="enable-background:new 0 0 200 200;" xml:space="preserve">
<g>
	<path d="M50.2,10.9c1.6,0,3.2,0,4.9,0c5.6,2,6.6,6.5,6,11.7c26.1,0,51.8,0,77.7,0c0-1.2,0-2.3,0-3.4c0-2.6,0.8-4.8,2.8-6.4
		c1-0.8,2.1-1.3,3.2-1.9c1.6,0,3.2,0,4.9,0c5.7,1.9,6.8,6.5,6.2,11.9c4,0,7.6-0.1,11.3,0c5.7,0.2,9.8,3,12,8.3c0.8,1.9,1,4.2,1,6.3
		c0.1,45.7,0,91.5,0,137.2c0,0.3,0,0.6,0,0.9c0,9.2-7.4,13.7-13.9,13.7C122.1,189,77.9,189,33.7,189c-1,0-2.1,0-3.1-0.2
		c-6.8-1.4-10.8-6.6-10.8-14.1c0-45.9,0-91.7,0-137.6c0-1.4,0.1-2.9,0.4-4.3c1.5-6,6.6-10,12.7-10.1c3.6,0,7.3,0,10.8,0
		c0.1-0.3,0.2-0.4,0.2-0.5c0-0.5,0.1-1,0-1.6C43.6,15.9,45.6,12.5,50.2,10.9z M174.8,65.4c-1,0-1.7,0-2.5,0c-35.7,0-71.3,0-107,0
		c-0.8,0-1.8,0.1-2.4-0.3c-0.8-0.6-1.8-1.6-1.8-2.4c0-0.8,0.9-1.9,1.7-2.4c0.6-0.4,1.6-0.3,2.4-0.3c35.8,0,71.5,0,107.3,0
		c0.7,0,1.4,0,2.2,0c0-7.9-0.2-15.5,0.1-23.1c0.2-4.9-3-9.1-8.9-8.9c-6.7,0.1-13.3,0-20,0c-0.6,0-1.1,0-1.8,0c0,2.2,0,4.3,0,6.3
		c0,3.1,0.1,3.3,3.2,4.1c1.4,0.4,2.2,1.3,2,2.8c-0.1,1.5-1.1,2.4-2.5,2.3c-1.5-0.1-3-0.5-4.3-1.2c-2.7-1.5-3.8-4.1-3.8-7.2
		c0-2.4,0-4.7,0-7c-30,0-59.7,0-89.5,0c0,2.5-0.1,4.9,0,7.3c0.1,1.7,1,2.7,2.8,2.9c1.6,0.2,2.6,1.4,2.5,2.8c-0.1,1.5-1.3,2.4-3,2.4
		c-4,0-7.5-3.5-7.6-7.8c-0.1-2.5,0-5.1,0-7.7c-4,0-7.8-0.2-11.6,0c-4.4,0.3-7.2,3.5-7.2,8c0,7.4,0,14.8,0,22.3c0,0.5,0.1,1,0.1,1.6
		c0.8,0,1.4,0,2,0c8.2,0,16.5,0,24.7,0c0.5,0,1.1,0,1.6,0.1c1.4,0.3,2.3,1.1,2.4,2.6c0,1.5-0.8,2.4-2.2,2.7
		c-0.6,0.1-1.3,0.1-1.9,0.1c-8.2,0-16.3,0-24.5,0c-0.7,0-1.3,0-2,0c0,0.6-0.1,1-0.1,1.3c0,32.9,0,65.7,0,98.6c0,4.7,3.4,8,8.2,8
		c33.5,0,67,0,100.5,0c4,0,6.5-2.5,6.5-6.6c0-5.4,0-10.9,0-16.3c0-6.6,4.3-11.3,10.8-11.6c5.4-0.3,10.9-0.3,16.3-0.1
		c4.8,0.2,7.4-2.7,7.4-7.2c-0.1-21.3-0.1-42.7-0.1-64C174.8,66.9,174.8,66.3,174.8,65.4z M25.3,176.1c-0.2,4.3,3.4,7.7,8.1,7.7
		c44.4,0,88.8,0,133.2,0c5,0,8.2-3.3,8.2-8.3c0-8.6,0-17.2,0-25.7c0-0.5-0.1-1-0.1-1.4c-0.1-0.1-0.3-0.2-0.4-0.2
		c-0.5,0.6-0.9,1.2-1.4,1.8c-8.1,8.1-16.2,16.1-24.2,24.2c-3,3-6.5,4.5-10.9,4.5c-33.7-0.1-67.3,0-101,0
		C32.8,178.6,28.8,178.9,25.3,176.1z M145.6,169c8.4-8.4,16.8-16.8,24.9-24.9c-0.5,0-1.4,0-2.4,0c-5.4,0-10.9,0-16.3,0
		c-3.4,0-6,2.2-6.1,5.6C145.5,156.2,145.6,162.7,145.6,169z M56,22.7c-0.6-2.2,0.9-4.7-1.5-6c-1-0.5-2.9-0.5-3.9,0.1
		c-2.2,1.4-1,3.8-1.3,6C51.5,22.7,53.6,22.7,56,22.7z M150.7,22.7c-0.4-2.3,0.9-4.8-1.6-6.1c-1-0.5-2.9-0.4-3.9,0.2
		c-2.1,1.5-0.8,3.9-1.2,5.9C146.4,22.7,148.4,22.7,150.7,22.7z"/>
	<path d="M117.8,75.7c1.9,0,3.8,0,5.7,0c3.4,0.1,5.5,2.1,5.6,5.5c0.1,3.9,0.1,7.8,0,11.7c-0.1,3.4-2.2,5.5-5.6,5.6
		c-3.9,0.1-7.8,0.1-11.7,0c-3.4-0.1-5.5-2.2-5.5-5.6c-0.1-3.8-0.1-7.7,0-11.5c0-3.5,2.2-5.6,5.7-5.7
		C113.9,75.7,115.8,75.7,117.8,75.7z M123.6,93c0-4.1,0-7.9,0-11.8c-4,0-7.9,0-11.8,0c0,4,0,7.9,0,11.8C115.8,93,119.7,93,123.6,93z
		"/>
	<path d="M141.8,87c0-1.9,0-3.7,0-5.6c0-3.5,2.1-5.7,5.6-5.7c3.9-0.1,7.8-0.1,11.7,0c3.4,0.1,5.4,2.1,5.5,5.4
		c0.1,3.9,0.1,7.9,0,11.8c-0.1,3.4-2.1,5.4-5.5,5.5c-3.9,0.1-7.9,0.1-11.8,0c-3.3-0.1-5.4-2.2-5.4-5.5C141.8,90.9,141.8,89,141.8,87
		z M159.1,81.2c-4.1,0-7.9,0-11.8,0c0,4,0,7.8,0,11.8c4,0,7.9,0,11.8,0C159.1,89,159.1,85.1,159.1,81.2z"/>
	<path d="M141.8,120.2c0-2,0-3.9,0-5.9c0.1-3.3,2.1-5.5,5.4-5.5c3.9-0.1,7.9-0.1,11.8,0c3.3,0.1,5.4,2.1,5.5,5.5
		c0.1,3.9,0.1,7.9,0,11.8c-0.1,3.3-2.2,5.4-5.5,5.5c-3.9,0.1-7.8,0.1-11.7,0c-3.5-0.1-5.5-2.2-5.6-5.8
		C141.8,123.9,141.8,122,141.8,120.2z M159.1,126c0-4,0-7.9,0-11.8c-4,0-7.9,0-11.8,0c0,4,0,7.8,0,11.8
		C151.2,126,155.1,126,159.1,126z"/>
	<path d="M58.2,87.1c0,1.9,0,3.8,0,5.7c0,3.3-2.1,5.5-5.3,5.6c-4.1,0.1-8.1,0.1-12.2,0c-3-0.1-5.1-2-5.2-5c-0.2-4.2-0.2-8.5,0-12.7
		c0.1-3,2.1-4.9,5.2-5c4.1-0.1,8.1-0.1,12.2,0c3.2,0.1,5.3,2.3,5.3,5.5C58.2,83.1,58.2,85.1,58.2,87.1z M40.9,81.2
		c0,4.1,0,7.9,0,11.8c4,0,7.9,0,11.8,0c0-4,0-7.8,0-11.8C48.7,81.2,44.9,81.2,40.9,81.2z"/>
	<path d="M93.7,87.1c0,1.9,0,3.8,0,5.7c-0.1,3.4-2.1,5.6-5.5,5.6c-3.9,0.1-7.8,0.1-11.7,0c-3.4-0.1-5.5-2.1-5.6-5.4
		c-0.1-4-0.1-8,0-12c0.1-3.3,2.2-5.3,5.6-5.4c3.8-0.1,7.7-0.1,11.5,0c3.6,0,5.6,2.2,5.7,5.8C93.7,83.4,93.7,85.2,93.7,87.1z
		 M76.4,81.2c0,4.1,0,7.9,0,11.8c4,0,7.9,0,11.8,0c0-4,0-7.8,0-11.8C84.2,81.2,80.3,81.2,76.4,81.2z"/>
	<path d="M117.5,130.7c-1.9,0-3.8,0-5.7,0c-3.2-0.1-5.3-2-5.4-5.1c-0.1-4.1-0.1-8.2,0-12.3c0.1-3.1,2.3-5.1,5.4-5.2
		c3.9,0,7.9,0,11.8,0c3.2,0,5.4,2.1,5.5,5.3c0.1,4.1,0.1,8.1,0,12.2c-0.1,3.3-2.2,5.2-5.5,5.2C121.6,130.7,119.5,130.7,117.5,130.7z
		 M111.9,113.4c0,4.1,0,8,0,11.9c4,0,7.8,0,11.8,0c0-4,0-7.9,0-11.9C119.7,113.4,115.8,113.4,111.9,113.4z"/>
	<path d="M82.3,130.7c-2,0-3.9,0-5.9,0c-3.2-0.1-5.3-1.9-5.4-5.1c-0.1-4.1-0.1-8.2,0-12.3c0.1-3.3,2.3-5.2,5.5-5.2
		c3.9,0,7.8,0,11.7,0c3.3,0,5.5,2.1,5.5,5.4c0.1,3.9,0.1,7.9,0,11.8c0,3.3-2.1,5.4-5.5,5.4C86.2,130.7,84.2,130.7,82.3,130.7z
		 M76.4,125.3c4,0,7.9,0,11.8,0c0-4,0-7.9,0-11.9c-4,0-7.8,0-11.8,0C76.4,117.4,76.4,121.3,76.4,125.3z"/>
	<path d="M82.1,162.9c-2,0-4.1,0-6.1,0c-2.6,0-4.8-1.7-4.9-4.2c-0.2-4.7-0.2-9.5,0-14.2c0.1-2.5,2.4-4.2,4.9-4.2c4.1,0,8.1,0,12.2,0
		c3.1,0,5.3,2,5.4,5.1c0.1,4.1,0.1,8.2,0,12.3c-0.1,3.1-2.3,5.1-5.4,5.1C86.2,162.9,84.2,162.9,82.1,162.9z M76.3,157.6
		c4.1,0,7.9,0,11.8,0c0-4,0-8,0-12c-4,0-7.9,0-11.8,0C76.3,149.7,76.3,153.6,76.3,157.6z"/>
	<path d="M46.8,130.7c-2.1,0-4.2,0-6.3,0c-2.8-0.1-4.9-1.8-5-4.5c-0.2-4.5-0.2-9,0-13.5c0.1-2.7,2.3-4.5,5-4.5
		c4.1-0.1,8.2-0.1,12.3,0c3,0,5.2,2.2,5.2,5.2c0.1,4.1,0.1,8.2,0,12.3c-0.1,3-2.2,5-5.2,5.1C50.9,130.7,48.9,130.7,46.8,130.7z
		 M52.8,113.4c-4.1,0-7.9,0-11.9,0c0,4,0,7.9,0,11.9c4,0,7.9,0,11.9,0C52.8,121.3,52.8,117.4,52.8,113.4z"/>
	<path d="M46.9,162.9c-2,0-4.1,0-6.1,0c-2.9,0-5.1-1.7-5.2-4.5c-0.2-4.5-0.2-9,0-13.5c0.1-2.7,2.3-4.5,5-4.5c4.1,0,8.2,0,12.3,0
		c3,0,5.2,2.1,5.2,5.1c0.1,4.1,0.1,8.2,0,12.3c-0.1,3.1-2.3,5.1-5.4,5.1C50.8,162.9,48.8,162.9,46.9,162.9z M52.8,145.7
		c-4.1,0-8,0-11.9,0c0,4.1,0,8,0,11.9c4,0,7.9,0,11.9,0C52.8,153.6,52.8,149.7,52.8,145.7z"/>
	<path d="M123.6,157.7c0-4.1,0-8,0-12.1c-3.9,0-7.8,0-11.9,0c0,1,0,2,0,2.9c-0.1,1.9-1.2,3-2.7,3c-1.5,0-2.7-1.2-2.7-3
		c0-1.4-0.1-2.8,0.2-4.2c0.5-2.6,2.4-4.1,5-4.1c4,0,8,0,12,0c3.2,0,5.4,2,5.5,5.2c0.1,4.1,0.1,8.1,0,12.2c-0.1,3.2-2.3,5.2-5.5,5.2
		c-4,0-8,0-12,0c-2.8,0-4.9-1.9-5.2-4.6c-0.2-1.4,0.4-2.5,1.7-2.9c1.3-0.5,2.7-0.2,3.2,1.2c0.4,1,0.9,1.1,1.8,1.1
		C116.6,157.7,120.1,157.7,123.6,157.7z"/>
</g>
</svg>
