<?xml version="1.0" encoding="utf-8"?>
<!-- Generator: Adobe Illustrator 25.4.1, SVG Export Plug-In . SVG Version: 6.00 Build 0)  -->
<svg version="1.1" id="Livello_1" xmlns="http://www.w3.org/2000/svg" xmlns:xlink="http://www.w3.org/1999/xlink" x="0px" y="0px"
	 viewBox="0 0 200 200" style="enable-background:new 0 0 200 200;" xml:space="preserve">
<style type="text/css">
	.st0{fill:#FFFFFF;}
</style>
<g id="Icon_awesome-facebook">
	<path class="st0" d="M200.6,100.6C200.6,45,155.5,0,100,0C44.4,0-0.6,45.1-0.6,100.6c0,49.5,36,91.6,84.9,99.4v-70.3H58.7v-29.1
		h25.5V78.4c-2.1-19.5,12-37,31.5-39.1c2.1-0.2,4.3-0.3,6.5-0.1c7.5,0.1,15.1,0.8,22.5,2V66h-12.7c-8-1-15.3,4.6-16.3,12.5
		c-0.1,1.1-0.2,2.1-0.1,3.2v18.9h27.9l-4.5,29.1h-23.4V200C164.6,192.2,200.6,150.1,200.6,100.6z"/>
</g>
</svg>
