<?xml version="1.0" encoding="utf-8"?>
<!-- Generator: Adobe Illustrator 25.4.1, SVG Export Plug-In . SVG Version: 6.00 Build 0)  -->
<svg version="1.1" id="Livello_1" xmlns="http://www.w3.org/2000/svg" xmlns:xlink="http://www.w3.org/1999/xlink" x="0px" y="0px"
	 viewBox="0 0 200 200" style="enable-background:new 0 0 200 200;" xml:space="preserve">
<style type="text/css">
	.st0{fill:none;}
	.st1{fill:#D9C5A0;}
	.st2{fill:#484471;}
</style>
<g id="Raggruppa_150" transform="translate(-3 -11)">
	<g id="Ellisse_10" transform="translate(1064 10442)">
		<g>
			<circle class="st0" cx="-961" cy="-10331" r="100"/>
		</g>
		<g>
			<path class="st1" d="M-961-10231c-55.1,0-100-44.9-100-100c0-55.1,44.9-100,100-100c55.1,0,100,44.9,100,100
				C-861-10275.9-905.9-10231-961-10231z M-961-10423.9c-51.2,0-92.9,41.7-92.9,92.9s41.7,92.9,92.9,92.9
				c51.2,0,92.9-41.7,92.9-92.9S-909.8-10423.9-961-10423.9z"/>
		</g>
	</g>
	<g id="Icon_awesome-facebook-f">
		<path class="st2" d="M124.3,117.6l2.9-19.2h-18.5V85.9c-0.5-5.3,3.4-10,8.7-10.4c0.7-0.1,1.4,0,2.1,0h8.4V59.2
			c-4.9-0.8-9.9-1.2-14.9-1.3c-12.9-1-24.2,8.7-25.2,21.6c-0.1,1.4-0.1,2.8,0.1,4.3v14.7H71.1v19.2H88v46.5h20.8v-46.5H124.3z"/>
	</g>
</g>
</svg>
