<?xml version="1.0" encoding="utf-8"?>
<!-- Generator: Adobe Illustrator 25.4.1, SVG Export Plug-In . SVG Version: 6.00 Build 0)  -->
<svg version="1.1" id="Livello_1" xmlns="http://www.w3.org/2000/svg" xmlns:xlink="http://www.w3.org/1999/xlink" x="0px" y="0px"
	 viewBox="0 0 200 200" style="enable-background:new 0 0 200 200;" xml:space="preserve">
<style type="text/css">
	.st0{fill:#D9C5A0;}
	.st1{fill:#FFFFFF;}
</style>
<g id="Ellisse_8">
	<circle class="st0" cx="100.4" cy="99.5" r="90.7"/>
</g>
<g>
	<g id="Linea_48">
		<rect x="39.5" y="96.9" class="st1" width="98.2" height="5.2"/>
	</g>
	<path class="st1" d="M90.1,144.4l4.8,1.7c0.3-0.7,0.6-1.3,0.9-2c6.1-15.9,17.8-28.3,32.4-35.4c9.9-5.4,21.1-8.6,33-9v-0.2
		c-11.9-0.4-23.2-3.6-33-9.1c-14.6-7.1-26.3-19.5-32.4-35.4c-0.3-0.7-0.6-1.3-0.9-2l-4.8,1.7c7.8,22.4,25.8,38.8,47.6,44.9
		C115.9,105.6,97.9,122,90.1,144.4z"/>
</g>
</svg>
