<?xml version="1.0" encoding="utf-8"?>
<!-- Generator: Adobe Illustrator 25.4.1, SVG Export Plug-In . SVG Version: 6.00 Build 0)  -->
<svg version="1.1" id="Livello_1" xmlns="http://www.w3.org/2000/svg" xmlns:xlink="http://www.w3.org/1999/xlink" x="0px" y="0px"
	 viewBox="0 0 200 200" style="enable-background:new 0 0 200 200;" xml:space="preserve">
<style type="text/css">
	.st0{fill:#484471;}
	.st1{fill:none;}
	.st2{fill:#D9C5A0;}
</style>
<g id="Raggruppa_151" transform="translate(0 -11)">
	<g id="Icon_feather-instagram" transform="translate(1101.258 10450.258)">
		<g id="Tracciato_37">
			<path class="st0" d="M-980.8-10294.7h-41c-13.3,0-24.1-10.8-24.1-24.1v-41c0-13.3,10.8-24.1,24.1-24.1h41
				c13.3,0,24.1,10.8,24.1,24.1v41C-956.7-10305.5-967.5-10294.7-980.8-10294.7z M-1021.8-10376.7c-9.3,0-16.9,7.6-16.9,16.9v41
				c0,9.3,7.6,16.9,16.9,16.9h41c9.3,0,16.9-7.6,16.9-16.9v-41c0-9.3-7.6-16.9-16.9-16.9H-1021.8z"/>
		</g>
		<g id="Tracciato_38">
			<path class="st0" d="M-1001.1-10319.4c-4.3,0-8.4-1.3-11.9-3.9c-4.3-3.2-7.1-7.8-7.9-13.1c-1.6-10.9,5.9-21.1,16.8-22.7
				c1.9-0.3,3.9-0.3,5.9,0c8.8,1.3,15.5,8.1,16.8,16.8l0,0c0.8,5.3-0.5,10.6-3.7,14.9c-3.2,4.3-7.8,7.1-13.1,7.9
				C-999.1-10319.5-1000.1-10319.4-1001.1-10319.4z M-1001.1-10352.3c-0.6,0-1.3,0-1.9,0.1c-7,1-11.9,7.6-10.8,14.6
				c0.5,3.4,2.3,6.4,5.1,8.4c2.8,2.1,6.1,2.9,9.5,2.4c3.4-0.5,6.4-2.3,8.4-5.1c2-2.8,2.9-6.2,2.4-9.5l0,0c-0.8-5.6-5.2-10-10.8-10.8
				C-999.8-10352.2-1000.5-10352.3-1001.1-10352.3z"/>
		</g>
		<g id="Tracciato_39">
			<path class="st0" d="M-978.7-10358.3c-0.4,0-0.9-0.1-1.4-0.3c-0.4-0.1-0.8-0.4-1.1-0.8c-0.4-0.3-0.6-0.7-0.8-1.1
				c-0.1-0.4-0.3-0.9-0.3-1.4c0-0.9,0.4-1.9,1.1-2.5c0.4-0.4,0.7-0.6,1.1-0.8c1.4-0.6,2.9-0.2,3.9,0.8c0.3,0.3,0.6,0.7,0.8,1.1
				c0.1,0.4,0.3,0.9,0.3,1.4c0,0.4-0.1,0.9-0.3,1.4c-0.2,0.4-0.5,0.9-0.8,1.1C-976.9-10358.6-977.8-10358.3-978.7-10358.3z"/>
		</g>
	</g>
	<g id="Ellisse_11" transform="translate(1093 10442)">
		<g>
			<circle class="st1" cx="-993" cy="-10331" r="100"/>
		</g>
		<g>
			<path class="st2" d="M-993-10231c-55.1,0-100-44.9-100-100c0-55.1,44.9-100,100-100c55.1,0,100,44.9,100,100
				C-893-10275.9-937.9-10231-993-10231z M-993-10423.9c-51.2,0-92.9,41.7-92.9,92.9s41.7,92.9,92.9,92.9
				c51.2,0,92.9-41.7,92.9-92.9S-941.8-10423.9-993-10423.9z"/>
		</g>
	</g>
</g>
</svg>
