<?xml version="1.0" encoding="utf-8"?>
<!-- Generator: Adobe Illustrator 25.4.1, SVG Export Plug-In . SVG Version: 6.00 Build 0)  -->
<svg version="1.1" id="Livello_1" xmlns="http://www.w3.org/2000/svg" xmlns:xlink="http://www.w3.org/1999/xlink" x="0px" y="0px"
	 viewBox="0 0 200 200" style="enable-background:new 0 0 200 200;" xml:space="preserve">
<style type="text/css">
	.st0{fill:none;}
	.st1{fill:#D9C5A0;}
	.st2{fill:#484471;}
</style>
<g id="Raggruppa_152" transform="translate(0 -11)">
	<g id="Ellisse_12" transform="translate(1125 10442)">
		<g>
			<circle class="st0" cx="-1025" cy="-10331" r="100"/>
		</g>
		<g>
			<path class="st1" d="M-1025-10231c-55.1,0-100-44.9-100-100c0-55.1,44.9-100,100-100c55.1,0,100,44.9,100,100
				C-925-10275.9-969.9-10231-1025-10231z M-1025-10423.9c-51.2,0-92.9,41.7-92.9,92.9s41.7,92.9,92.9,92.9s92.9-41.7,92.9-92.9
				S-973.8-10423.9-1025-10423.9z"/>
		</g>
	</g>
	<g id="Icon_awesome-linkedin-in">
		<path class="st2" d="M77,149.8H58.6V90.5H77V149.8z M67.8,82.4c-5.9,0-10.7-4.7-10.8-10.7S61.8,61,67.7,61s10.7,4.7,10.8,10.7
			c0,0,0,0,0,0C78.5,77.6,73.7,82.4,67.8,82.4z M145.9,149.8h-18.4v-28.9c0-6.9-0.1-15.7-9.6-15.7c-9.6,0-11,7.5-11,15.2v29.4H88.6
			V90.5h17.6v8.1h0.3c3.6-6.2,10.3-9.8,17.4-9.6c18.6,0,22.1,12.3,22.1,28.2L145.9,149.8L145.9,149.8z"/>
	</g>
</g>
</svg>
