<?xml version="1.0" encoding="utf-8"?>
<!-- Generator: Adobe Illustrator 25.4.1, SVG Export Plug-In . SVG Version: 6.00 Build 0)  -->
<svg version="1.1" id="Livello_1" xmlns="http://www.w3.org/2000/svg" xmlns:xlink="http://www.w3.org/1999/xlink" x="0px" y="0px"
	 viewBox="0 0 200 200" style="enable-background:new 0 0 200 200;" xml:space="preserve">
<style type="text/css">
	.st0{fill:#FFFFFF;}
</style>
<g id="Icon_feather-instagram" transform="translate(684.755 7599.407)">
	<g id="Tracciato_37">
		<path class="st0" d="M-541.5-7399.9H-628c-31,0-56.2-25.2-56.2-56.2v-86.6c0-31,25.2-56.2,56.2-56.2h86.6
			c31,0,56.2,25.2,56.2,56.2v86.6C-485.3-7425.1-510.5-7399.9-541.5-7399.9z M-628-7573c-16.7,0-30.3,13.6-30.3,30.3v86.6
			c0,16.7,13.6,30.3,30.3,30.3h86.6c16.7,0,30.3-13.6,30.3-30.3v-86.6c0-16.7-13.6-30.3-30.3-30.3H-628z"/>
	</g>
	<g id="Tracciato_38">
		<path class="st0" d="M-584.4-7452.2c-23.2,0-43.5-17-47-40.6c-3.9-25.9,14.1-50.2,40.1-54c4.6-0.7,9.3-0.7,14,0
			c20.9,3.1,37,19.2,40.1,40.1c3.9,25.9-14.1,50.2-40.1,54C-579.8-7452.4-582.1-7452.2-584.4-7452.2z M-584.4-7521.5
			c-1.1,0-2.1,0.1-3.2,0.2c-11.8,1.8-20,12.8-18.3,24.6c1.8,11.8,12.8,20,24.6,18.3c5.7-0.9,10.8-3.9,14.2-8.5
			c3.5-4.7,4.9-10.4,4-16.1v0c-1.4-9.5-8.8-16.9-18.3-18.3C-582.3-7521.4-583.3-7521.5-584.4-7521.5z"/>
	</g>
	<g id="Tracciato_39">
		<path class="st0" d="M-537.2-7534.1c-3.4,0-6.7-1.4-9.2-3.8c-2.3-2.5-3.8-5.8-3.8-9.2c0-0.8,0.1-1.7,0.3-2.6
			c0.1-0.8,0.4-1.5,0.8-2.3c0.3-0.8,0.7-1.6,1.2-2.2c0.5-0.8,1-1.4,1.5-2.1c1.3-1.2,2.7-2.1,4.3-2.7c3.1-1.3,6.7-1.3,9.8,0
			c1.7,0.6,3.1,1.6,4.3,2.7c0.7,0.6,1.2,1.3,1.6,2.1c0.5,0.6,0.9,1.4,1.3,2.2c0.3,0.8,0.5,1.6,0.6,2.3c0.3,0.9,0.3,1.8,0.3,2.6
			c0,3.4-1.3,6.7-3.8,9.2C-530.5-7535.5-533.8-7534.1-537.2-7534.1z"/>
	</g>
</g>
</svg>
