<?xml version="1.0" encoding="utf-8"?>
<!-- Generator: Adobe Illustrator 25.4.1, SVG Export Plug-In . SVG Version: 6.00 Build 0)  -->
<svg version="1.1" id="Livello_1" xmlns="http://www.w3.org/2000/svg" xmlns:xlink="http://www.w3.org/1999/xlink" x="0px" y="0px"
	 viewBox="0 0 200 200" style="enable-background:new 0 0 200 200;" xml:space="preserve">
<style type="text/css">
	.st0{fill:#FFFFFF;}
</style>
<g id="Icon_awesome-linkedin">
	<path class="st0" d="M177.9,9.1H22.1C14.9,9.2,9.1,15,9.1,22.2v155.5c0,7.2,5.7,13.1,12.9,13.1h155.8c7.2-0.1,13-5.9,12.9-13.1
		V22.2C190.9,15,185.1,9.2,177.9,9.1z M64.1,164.9H37.1V78.2h27L64.1,164.9L64.1,164.9z M50.6,66.3c-8.6,0-15.6-7-15.6-15.6
		s7-15.6,15.6-15.6s15.6,7,15.6,15.6c0,0,0,0,0,0C66.2,59.3,59.2,66.3,50.6,66.3z M165.1,164.9h-26.9v-42.2c0-10.1-0.2-23-14-23
		c-14,0-16.2,11-16.2,22.3v42.9H81V78.2h25.9V90h0.4c5.3-9,15.1-14.4,25.5-14c27.3,0,32.3,18,32.3,41.4L165.1,164.9z"/>
</g>
</svg>
