<?xml version="1.0" encoding="utf-8"?>
<!-- Generator: Adobe Illustrator 25.4.1, SVG Export Plug-In . SVG Version: 6.00 Build 0)  -->
<svg version="1.1" id="Livello_1" xmlns="http://www.w3.org/2000/svg" xmlns:xlink="http://www.w3.org/1999/xlink" x="0px" y="0px"
	 viewBox="0 0 1000 294.2" style="enable-background:new 0 0 1000 294.2;" xml:space="preserve">
<style type="text/css">
	.st0{fill:#D9C5A0;}
</style>
<g>
	<path class="st0" d="M599.6,180.1c0.4-0.6,0.5-1.1,0.5-1.7c-0.2-1.3-0.5-2.1-1-2.2c-0.5-0.2-1.2-0.2-2-0.2c-1.9,0-3.3-0.3-4.3-0.8
		c-1-0.5-1.7-1.2-2.2-2c-0.5-0.9-0.8-1.8-0.9-2.9c-0.1-1.1-0.2-2.2-0.2-3.3v-46.4c0-1.1,0.1-2.2,0.2-3.3c0.1-1.1,0.4-2.1,0.9-2.9
		s1.2-1.5,2.2-2c1-0.5,2.4-0.8,4.3-0.8c0.9,0,1.5-0.1,2-0.2c0.5-0.2,0.8-0.9,1-2.2c0-0.6-0.2-1.2-0.5-1.7c-0.4-0.6-0.9-0.8-1.6-0.8
		c-5.1,0.2-9.9,0.4-14.6,0.4c-2.3,0-4.6,0-6.8-0.1c-2.2,0-4.6-0.1-7.1-0.3c-0.8,0-1.3,0.3-1.6,0.8c-0.3,0.6-0.5,1.1-0.5,1.7
		c0.1,1.3,0.4,2.1,0.9,2.2c0.5,0.2,1.2,0.2,2,0.2c1.9,0,3.3,0.2,4.3,0.8c1,0.5,1.7,1.2,2.2,2c0.5,0.9,0.8,1.8,0.9,2.9
		s0.2,2.2,0.3,3.3v46.3c-0.1,1.1-0.2,2.2-0.3,3.3s-0.4,2.1-0.9,2.9c-0.5,0.9-1.2,1.5-2.2,2c-1,0.5-2.4,0.8-4.3,0.8
		c-0.8,0-1.4,0.1-2,0.2c-0.6,0.2-0.9,0.9-0.9,2.2c0,0.6,0.2,1.2,0.5,1.7c0.3,0.6,0.9,0.8,1.6,0.8c2.5-0.2,4.9-0.2,7.1-0.3
		c2.3,0,4.5-0.1,6.9-0.1c4.6,0,9.4,0.1,14.5,0.4C598.7,180.9,599.3,180.7,599.6,180.1"/>
	<path class="st0" d="M674.6,109.8c0-1.1-0.3-1.8-0.9-2.2c-0.6-0.4-1.3-0.6-2.2-0.6h-57.1c-0.9,0-1.6,0.2-2.2,0.6
		c-0.6,0.4-0.9,1.1-0.9,2.2l-0.4,16.5c0,0.8,0.3,1.4,0.9,1.7c0.6,0.4,1.2,0.6,1.9,0.6c0.9,0,1.7-0.2,2.6-0.5
		c0.9-0.4,1.4-0.9,1.5-1.6c0.4-2.6,0.8-4.9,1.3-6.8c0.5-1.9,1.1-3.4,1.9-4.7c0.8-1.2,1.9-2.2,3.2-2.8c1.3-0.6,2.9-0.9,5-1h8V167
		c0,1.1-0.1,2.2-0.2,3.3c-0.1,1.1-0.4,2.1-0.9,2.9c-0.5,0.9-1.2,1.5-2.2,2c-1,0.5-2.4,0.8-4.3,0.8c-0.9,0-1.5,0.1-2,0.2
		c-0.5,0.2-0.8,0.9-0.9,2.2c0,0.6,0.2,1.2,0.5,1.7c0.3,0.5,0.9,0.8,1.6,0.8c5-0.2,9.8-0.4,14.6-0.4c2.3,0,4.5,0,6.7,0.1
		c2.2,0,4.6,0.1,7.1,0.3c0.8,0,1.3-0.3,1.6-0.8c0.3-0.6,0.5-1.1,0.5-1.7c-0.1-1.3-0.4-2.1-0.9-2.2c-0.6-0.2-1.2-0.2-2-0.2
		c-1.9,0-3.3-0.3-4.3-0.8c-1-0.5-1.7-1.2-2.2-2c-0.5-0.9-0.8-1.8-0.9-2.9s-0.2-2.2-0.2-3.3v-55.7h7.9c2,0.1,3.7,0.4,5,1
		c1.3,0.6,2.3,1.5,3.2,2.8c0.8,1.2,1.5,2.8,2,4.7c0.5,1.9,1,4.1,1.3,6.8c0.2,0.7,0.6,1.2,1.5,1.6c0.8,0.4,1.7,0.5,2.5,0.5
		c0.6,0,1.3-0.2,1.9-0.6c0.7-0.4,1-1,1-1.7L674.6,109.8z"/>
	<path class="st0" d="M752.9,180.1c0.4-0.6,0.5-1.1,0.5-1.7c-0.1-1.3-0.4-2.1-0.9-2.2c-0.5-0.2-1.2-0.2-2-0.2
		c-1.2,0-2.3-0.3-3.2-0.9s-1.6-1.3-2.2-2.2c-0.6-0.9-1.2-1.8-1.6-2.9c-0.5-1.1-0.9-2.1-1.3-3.1l-19.6-48.3c-1.1-2.6-2.2-4.7-3.4-6.3
		s-2.5-2.9-3.9-3.7c-1.4-0.9-3.1-1.5-4.9-1.8c-1.8-0.4-4-0.5-6.4-0.5c-1.3,0-2.4,0.1-3.3,0.2s-1.3,0.8-1.3,2.2c0,1.2,0.2,1.8,0.6,2
		c0.4,0.2,1.2,0.4,2.3,0.6c0.9,0.2,1.8,0.4,2.7,0.6c0.9,0.3,1.6,0.7,2.2,1.2c0.6,0.6,1,1.2,1.1,2.1s0,2-0.6,3.4l-20.4,48.3
		c-0.5,1.1-0.9,2.2-1.4,3.3c-0.5,1.1-1,2.1-1.7,2.9s-1.5,1.5-2.4,2c-1,0.5-2.2,0.8-3.8,0.8c-0.9,0-1.5,0.1-2,0.2
		c-0.5,0.2-0.8,0.9-0.9,2.2c0,0.6,0.2,1.2,0.5,1.7s0.9,0.8,1.6,0.8c1.2-0.1,2.3-0.1,3.2-0.2c0.9,0,1.7-0.1,2.6-0.1
		c0.8,0,1.7-0.1,2.5-0.1h3c2.3,0,4.4,0,6.2,0.1c1.8,0,4,0.1,6.5,0.3c0.7,0,1.2-0.3,1.6-0.8c0.4-0.6,0.5-1.1,0.5-1.7
		c-0.1-1.3-0.4-2.1-0.9-2.2c-0.5-0.2-1.2-0.2-2-0.2c-2.3,0-4-0.1-5.3-0.3c-1.3-0.2-2.2-0.6-2.6-1.2c-0.5-0.6-0.6-1.5-0.4-2.7
		c0.2-1.2,0.7-2.8,1.3-4.8c0.6-1.7,1.9-4.9,3.7-9.7H726l4,9.7c0.6,1.6,1,3,1.2,4.1c0.2,1.1,0.2,2-0.1,2.7c-0.3,0.7-0.9,1.2-1.9,1.6
		c-1,0.4-2.4,0.5-4.3,0.5c-0.9,0-1.5,0.1-2,0.2c-0.5,0.2-0.8,0.9-0.9,2.2c0,0.6,0.2,1.2,0.5,1.7c0.3,0.5,0.9,0.8,1.6,0.8
		c5-0.2,9.8-0.4,14.5-0.4c2.3,0,4.4,0,6.3,0.1c1.9,0,4,0.1,6.5,0.3C752,180.9,752.5,180.7,752.9,180.1 M699.3,152.2l12.4-30h0.4
		l11.8,30H699.3z"/>
	<path class="st0" d="M820.6,163.4c0.1-0.8-0.2-1.4-0.9-1.8c-0.7-0.4-1.3-0.7-1.9-0.9c-0.9-0.2-1.7-0.1-2.4,0.1
		c-0.7,0.2-1.3,0.7-1.6,1.5c-0.8,2.6-1.5,4.7-2.1,6.4c-0.6,1.7-1.4,3.1-2.2,4.1c-0.9,1.1-1.9,1.8-3.2,2.2c-1.3,0.4-2.9,0.7-5,0.8
		h-10.5c-2,0.1-3.6-0.1-4.7-0.6c-1.1-0.5-1.9-1.1-2.4-1.8c-0.5-0.7-0.8-1.5-0.9-2.4s-0.2-1.7-0.2-2.4v-48.1c0-1.1,0.1-2.2,0.2-3.3
		c0.1-1.1,0.4-2.1,0.9-2.9c0.5-0.9,1.2-1.5,2.2-2c1-0.5,2.4-0.8,4.3-0.8c0.8,0,1.4-0.1,2-0.2c0.6-0.2,0.9-0.9,0.9-2.2
		c0-0.6-0.2-1.2-0.5-1.7c-0.3-0.6-0.9-0.8-1.6-0.8c-5.1,0.2-9.9,0.4-14.6,0.4c-2.3,0-4.6,0-6.8-0.1c-2.2,0-4.5-0.1-7.1-0.3
		c-0.7,0-1.2,0.2-1.5,0.7c-0.3,0.5-0.5,1.1-0.5,1.9c0.1,1.2,0.4,2,0.9,2.2c0.5,0.2,1.2,0.3,2,0.3c1.9,0,3.3,0.2,4.3,0.8
		c1,0.5,1.7,1.2,2.2,2c0.5,0.9,0.8,1.8,0.9,2.9c0.1,1.1,0.2,2.2,0.2,3.3v46.3c0,1.1-0.1,2.2-0.2,3.3c-0.1,1.1-0.4,2.1-0.9,2.9
		c-0.5,0.9-1.2,1.5-2.2,2c-1,0.5-2.5,0.8-4.3,0.8c-0.9,0-1.5,0.1-2,0.4c-0.5,0.2-0.8,0.9-0.9,2.1c0,0.6,0.2,1.2,0.5,1.7
		c0.3,0.5,0.8,0.8,1.5,0.8c2.6-0.2,5-0.2,7.2-0.3c2.2,0,4.5-0.1,6.8-0.1h38.3c1,0,1.8-0.1,2.3-0.4c0.5-0.3,0.9-1,1.1-2L820.6,163.4z
		"/>
	<path class="st0" d="M860.6,180.9c0.7,0,1.2-0.3,1.6-0.8c0.3-0.6,0.5-1.1,0.5-1.7c-0.2-1.3-0.5-2.1-1-2.2c-0.5-0.2-1.2-0.2-2-0.2
		c-1.9,0-3.3-0.2-4.3-0.8c-1-0.5-1.7-1.2-2.2-2c-0.5-0.9-0.8-1.8-0.9-2.9c-0.1-1.1-0.2-2.2-0.2-3.3v-46.4c0-1.1,0.1-2.2,0.2-3.3
		c0.1-1.1,0.4-2.1,0.9-2.9c0.5-0.9,1.2-1.5,2.2-2c1-0.5,2.5-0.8,4.3-0.8c0.9,0,1.5-0.1,2-0.2c0.5-0.2,0.8-0.9,1-2.2
		c0-0.6-0.2-1.2-0.5-1.7c-0.4-0.6-0.9-0.8-1.6-0.8c-5.1,0.2-9.9,0.3-14.6,0.3c-2.3,0-4.6,0-6.8-0.1c-2.2,0-4.6-0.1-7.1-0.3
		c-0.8,0-1.3,0.3-1.6,0.8c-0.3,0.6-0.5,1.1-0.5,1.7c0.1,1.3,0.4,2.1,0.9,2.2c0.6,0.2,1.2,0.2,2,0.2c1.9,0,3.3,0.3,4.3,0.8
		c1,0.5,1.7,1.2,2.2,2c0.5,0.9,0.8,1.8,0.9,2.9c0.1,1.1,0.2,2.2,0.3,3.3v46.3c-0.1,1.1-0.2,2.2-0.3,3.3c-0.1,1.1-0.4,2.1-0.9,2.9
		c-0.5,0.9-1.2,1.5-2.2,2c-1,0.5-2.4,0.8-4.3,0.8c-0.8,0-1.4,0.1-2,0.2c-0.6,0.2-0.9,0.9-0.9,2.2c0,0.6,0.2,1.2,0.5,1.7
		c0.3,0.6,0.9,0.8,1.6,0.8c2.5-0.2,4.9-0.3,7.1-0.3c2.3,0,4.5-0.1,6.9-0.1C850.8,180.6,855.6,180.7,860.6,180.9"/>
	<path class="st0" d="M946.6,176.2c-0.5-0.2-1.2-0.2-2-0.2c-1.2,0-2.3-0.3-3.2-0.9s-1.6-1.3-2.2-2.2c-0.6-0.9-1.2-1.8-1.6-2.9
		c-0.5-1.1-0.9-2.1-1.3-3.1l-19.6-48.3c-1.1-2.6-2.2-4.7-3.4-6.3c-1.2-1.6-2.5-2.9-3.9-3.7c-1.4-0.9-3.1-1.5-4.9-1.8
		c-1.8-0.4-4-0.5-6.4-0.5c-1.3,0-2.4,0.1-3.3,0.2c-0.9,0.1-1.3,0.8-1.3,2.2c0,1.2,0.2,1.8,0.6,2c0.4,0.2,1.2,0.4,2.3,0.6
		c0.9,0.2,1.8,0.4,2.7,0.6c0.9,0.3,1.6,0.7,2.2,1.2c0.6,0.6,1,1.2,1.1,2.1c0.1,0.9,0,2-0.6,3.4l-20.4,48.3c-0.5,1.1-0.9,2.2-1.4,3.3
		c-0.5,1.1-1,2.1-1.7,2.9c-0.7,0.9-1.5,1.5-2.4,2c-1,0.5-2.2,0.8-3.8,0.8c-0.9,0-1.5,0.1-2,0.2c-0.5,0.2-0.8,0.9-0.9,2.2
		c0,0.6,0.2,1.2,0.5,1.7s0.9,0.8,1.6,0.8c1.2-0.1,2.3-0.1,3.2-0.2c0.9,0,1.7-0.1,2.6-0.1c0.8,0,1.7-0.1,2.5-0.1h3
		c2.3,0,4.4,0,6.2,0.1c1.8,0,4,0.1,6.5,0.3c0.7,0,1.2-0.3,1.6-0.8c0.4-0.6,0.5-1.1,0.5-1.7c-0.1-1.3-0.4-2.1-0.9-2.2
		c-0.5-0.2-1.2-0.2-2-0.2c-2.3,0-4-0.1-5.3-0.3c-1.3-0.2-2.2-0.6-2.6-1.2c-0.5-0.6-0.6-1.5-0.4-2.7c0.2-1.2,0.7-2.8,1.3-4.8
		c0.6-1.7,1.9-4.9,3.7-9.7h28.8l4,9.7c0.6,1.6,1,3,1.2,4.1c0.2,1.1,0.2,2-0.1,2.7c-0.3,0.7-0.9,1.2-1.9,1.6c-1,0.4-2.4,0.5-4.3,0.5
		c-0.9,0-1.5,0.1-2,0.2c-0.5,0.2-0.8,0.9-0.9,2.2c0,0.6,0.1,1.2,0.5,1.7c0.3,0.5,0.9,0.8,1.6,0.8c5-0.2,9.8-0.4,14.5-0.4
		c2.3,0,4.4,0,6.3,0.1c1.9,0,4,0.1,6.5,0.3c0.7,0,1.2-0.3,1.6-0.8c0.4-0.6,0.5-1.1,0.5-1.7C947.4,177.1,947.1,176.3,946.6,176.2
		 M893.4,152.2l12.4-30h0.4l11.8,30H893.4z"/>
	<g>
		<path id="SVGID_3_" class="st0" d="M569.7,220.9c-1.3,0.6-2.3,1.4-3,2.4c-0.7,1-1.1,2.2-1.1,3.5c0,1.3,0.2,2.4,0.7,3.3
			c0.5,0.9,1.2,1.7,2.2,2.4c1,0.7,2.3,1.4,3.9,2.1c1.7,0.7,2.9,1.3,3.9,1.9c0.9,0.5,1.7,1.1,2.2,1.7c0.5,0.6,0.7,1.4,0.7,2.2
			c0,1.2-0.5,2.1-1.5,2.8c-1,0.7-2.4,1-4.3,1c-1.1,0-2.2-0.2-3.4-0.5c-1.2-0.3-2.2-0.7-3.1-1.2l-0.8,2.9c0.5,0.5,1.6,0.9,3.2,1.3
			c1.6,0.4,3,0.6,4.2,0.6c2,0,3.7-0.3,5.1-0.9c1.4-0.6,2.5-1.4,3.3-2.5c0.7-1.1,1.1-2.3,1.1-3.7c0-1.8-0.6-3.3-1.7-4.4
			c-1.1-1.1-2.8-2.2-5.2-3.3c-1.8-0.8-3.1-1.5-4-2c-0.9-0.5-1.6-1.1-2.1-1.7c-0.5-0.6-0.7-1.4-0.7-2.2c0-1.1,0.5-2,1.4-2.6
			c1-0.6,2.2-0.9,3.8-0.9c1.1,0,2.1,0.1,2.9,0.4s1.7,0.6,2.6,1l1.2-2.9c-1-0.5-2.1-0.9-3.3-1.2c-1.2-0.3-2.4-0.5-3.7-0.5
			C572.5,220,571,220.3,569.7,220.9"/>
	</g>
	<g>
		<path id="SVGID_5_" class="st0" d="M598.3,223.8h3.8c2,0,3.5,0.4,4.6,1.2c1,0.8,1.6,2.1,1.6,4c-0.1,1.8-0.7,3.1-1.8,3.9
			c-1.1,0.9-2.6,1.3-4.5,1.3h-3.6V223.8z M594.6,220.6V247h3.7v-9.7h3.4c1.9,0,3.6-0.3,5.2-0.9c1.6-0.6,2.8-1.5,3.7-2.8
			s1.4-2.8,1.4-4.7c0-2.8-0.9-4.9-2.7-6.2c-1.8-1.3-4.2-2-7.2-2L594.6,220.6L594.6,220.6z"/>
	</g>
	<g>
		<path id="SVGID_7_" class="st0" d="M629.8,243c-1.3-0.9-2.3-2.1-3.1-3.7c-0.7-1.6-1.1-3.4-1.1-5.4c0-2,0.4-3.9,1.1-5.5
			c0.7-1.6,1.8-2.9,3.1-3.8c1.3-0.9,2.8-1.4,4.5-1.4c1.6,0,3.1,0.5,4.4,1.3c1.3,0.9,2.3,2.1,3,3.7c0.7,1.6,1.1,3.4,1.1,5.4
			c0,2-0.4,3.9-1.1,5.5c-0.7,1.6-1.8,2.9-3.1,3.8c-1.3,0.9-2.8,1.4-4.5,1.4C632.6,244.4,631.1,243.9,629.8,243 M627.9,221.9
			c-1.9,1.2-3.4,2.9-4.5,5c-1.1,2.1-1.6,4.4-1.6,7s0.5,5,1.6,7c1.1,2.1,2.6,3.7,4.5,4.8c1.9,1.2,4,1.7,6.4,1.7
			c2.4,0,4.6-0.6,6.5-1.9c1.9-1.2,3.4-2.9,4.5-5c1.1-2.1,1.6-4.4,1.6-7s-0.5-5-1.6-7c-1.1-2.1-2.6-3.7-4.5-4.9
			c-1.9-1.2-4.1-1.8-6.5-1.8C632,220.1,629.8,220.7,627.9,221.9"/>
	</g>
	<g>
		<rect id="SVGID_9_" x="658.9" y="220.6" class="st0" width="3.7" height="26.3"/>
	</g>
	<g>
		<polygon id="SVGID_11_" class="st0" points="676.6,220.6 676.6,247 692.7,247 692.2,244.1 680.3,244.1 680.3,220.6 		"/>
	</g>
	<g>
		<polygon id="SVGID_13_" class="st0" points="716.3,221.3 725,236.5 725,247 728.7,247 728.8,236.5 737.9,220.6 734,220.6 
			726.9,232.8 719.9,220 		"/>
	</g>
	<g>
		<path id="SVGID_15_" class="st0" d="M754.9,243c-1.3-0.9-2.3-2.1-3.1-3.7c-0.7-1.6-1.1-3.4-1.1-5.4c0-2,0.4-3.9,1.1-5.5
			c0.7-1.6,1.8-2.9,3.1-3.8c1.3-0.9,2.8-1.4,4.5-1.4c1.6,0,3.1,0.5,4.4,1.3c1.3,0.9,2.3,2.1,3,3.7c0.7,1.6,1.1,3.4,1.1,5.4
			c0,2-0.4,3.9-1.1,5.5c-0.7,1.6-1.8,2.9-3.1,3.8c-1.3,0.9-2.8,1.4-4.5,1.4C757.7,244.4,756.2,243.9,754.9,243 M753,221.9
			c-1.9,1.2-3.4,2.9-4.5,5c-1.1,2.1-1.6,4.4-1.6,7s0.5,5,1.6,7c1.1,2.1,2.6,3.7,4.5,4.8c1.9,1.2,4,1.7,6.4,1.7
			c2.4,0,4.6-0.6,6.5-1.9s3.4-2.9,4.5-5c1.1-2.1,1.6-4.4,1.6-7s-0.5-5-1.6-7c-1.1-2.1-2.6-3.7-4.5-4.9c-1.9-1.2-4.1-1.8-6.5-1.8
			C757,220.1,754.9,220.7,753,221.9"/>
	</g>
	<g>
		<path id="SVGID_17_" class="st0" d="M800.4,220.6v16.6c0,2.2-0.6,3.9-1.7,5.2c-1.2,1.3-2.8,1.9-4.8,1.9c-2,0-3.5-0.6-4.7-1.9
			s-1.8-3-1.8-5.2v-16.6h-3.7v16.9c0,1.9,0.4,3.6,1.3,5.1c0.8,1.5,2,2.7,3.6,3.5c1.6,0.8,3.4,1.3,5.4,1.3c2.1,0,3.9-0.4,5.4-1.3
			c1.6-0.9,2.7-2,3.6-3.5c0.8-1.5,1.3-3.2,1.3-5.1v-16.9L800.4,220.6L800.4,220.6z"/>
	</g>
	<g>
		<path id="SVGID_19_" class="st0" d="M821.4,223.8h3.8c2,0,3.5,0.4,4.5,1.1c1.1,0.7,1.6,2,1.6,3.7c0,1.7-0.6,2.9-1.8,3.7
			c-1.1,0.8-2.7,1.1-4.5,1.1h-3.6L821.4,223.8L821.4,223.8z M817.7,220.6V247h3.7v-10.5h3.4c1.2,0,2,0,2.4-0.1l5.9,10.7h4l-6.6-11.6
			c1.4-0.6,2.5-1.5,3.3-2.7c0.8-1.2,1.3-2.6,1.3-4.2c0-2.6-0.9-4.6-2.8-5.9c-1.8-1.3-4.2-1.9-7.2-1.9L817.7,220.6L817.7,220.6z"/>
	</g>
	<g>
		<path id="SVGID_21_" class="st0" d="M850.2,220.9c-1.3,0.6-2.3,1.4-3,2.4c-0.7,1-1.1,2.2-1.1,3.5c0,1.3,0.2,2.4,0.7,3.3
			c0.5,0.9,1.2,1.7,2.2,2.4c1,0.7,2.3,1.4,3.9,2.1c1.7,0.7,2.9,1.3,3.9,1.9c0.9,0.5,1.7,1.1,2.2,1.7c0.5,0.6,0.8,1.4,0.8,2.2
			c0,1.2-0.5,2.1-1.5,2.8c-1,0.7-2.4,1-4.3,1c-1.1,0-2.2-0.2-3.4-0.5c-1.2-0.3-2.2-0.7-3.1-1.2l-0.9,2.9c0.5,0.5,1.6,0.9,3.2,1.3
			s3,0.6,4.2,0.6c2,0,3.7-0.3,5.1-0.9c1.4-0.6,2.5-1.4,3.3-2.5c0.7-1.1,1.1-2.3,1.1-3.7c0-1.8-0.6-3.3-1.7-4.4
			c-1.1-1.1-2.8-2.2-5.2-3.3c-1.7-0.8-3.1-1.5-4-2c-0.9-0.5-1.6-1.1-2.1-1.7c-0.5-0.6-0.7-1.4-0.7-2.2c0-1.1,0.5-2,1.4-2.6
			c1-0.6,2.2-0.9,3.8-0.9c1.1,0,2.1,0.1,2.9,0.4c0.8,0.2,1.7,0.6,2.6,1l1.2-2.9c-1-0.5-2.1-0.9-3.3-1.2s-2.4-0.5-3.7-0.5
			C853,220,851.5,220.3,850.2,220.9"/>
	</g>
	<g>
		<polygon id="SVGID_23_" class="st0" points="875.1,220.6 875.1,247 891.8,247 891.3,244.1 878.8,244.1 878.8,235 888.3,235 
			887.8,232.2 878.8,232.2 878.8,223.5 891.8,223.5 891.3,220.6 		"/>
	</g>
	<g>
		<polygon id="SVGID_25_" class="st0" points="903.1,220.6 903.1,247 919.1,247 918.7,244.1 906.8,244.1 906.8,220.6 		"/>
	</g>
	<g>
		<polygon id="SVGID_27_" class="st0" points="930,220.6 930,247 933.7,247 933.7,235.2 942.7,235.2 942.3,232.4 933.7,232.4 
			933.7,223.5 944.7,223.5 944.2,220.6 		"/>
	</g>
	<path class="st0" d="M315.2,21.4c-8.4,0.2-16.7,1.3-24.9,2.9c-16.4,3.4-32.5,8.7-47,17.3C229,50.3,216,60.9,203.4,71.9
		C191,83,179,94.6,167.3,106.4c-23.4,23.7-45.7,48.5-68,73.2c-5.6,6.2-11.2,12.3-16.9,18.4c-5.6,6.1-11.7,11.6-17.9,17.3
		c-3.1,2.8-6.1,5.7-9.1,8.7c-0.7,0.8-1.6,1.7-2.2,2.9c-0.6,1.1-1,2.7-0.6,4.3c0.5,1.6,1.6,2.6,2.6,3.3c1.1,0.7,2.1,1.2,3.2,1.6
		c4.3,1.4,8.7,1.6,13,1.4c4.3-0.2,8.7-1.2,12.6-2.6c7.9-2.8,15.7-5.7,23.5-8.5c7.8-2.8,15.7-5,23.8-7c16.1-3.9,32.5-6.6,49-8.1
		c16.5-1.3,33.2-2.2,49.3,1.5c16.2,3.4,31.9,9,47.3,15.1c15.4,6.2,30.6,13.1,45.8,19.8c15.3,6.7,30.4,13.7,46.7,18.1
		c8.1,2.1,16.7,3,25.1,2c8.4-1,16.6-3.8,23.8-8.1c14.6-8.7,25.3-22.4,33.9-36.6c0,0,0.4-0.5,0.6-1.2c0.5-1.2-0.8-1.5-1.5-0.6
		c-0.4,0.5-0.7,1-0.7,1c-8.7,14-19.5,27.1-33.7,35.3c-7,4.1-14.8,6.6-22.8,7.4c-8,0.8-16.1-0.2-23.9-2.3
		c-15.3-5.5-29.7-14-44.4-21.6l-22.1-11.8c-7.5-3.9-15-7.6-22.7-11.2c-7.7-3.6-15.5-7-23.6-10.2c-8.1-3.1-16.4-5.8-25.1-7.9
		c-4.3-1.1-8.8-2-13.4-2.7c-2.3-0.3-4.6-0.7-7-0.8l-3.5-0.3l-3.3-0.1c-8.8-0.4-17.5-0.3-26.2,0.3c-17.4,1.1-34.5,3.5-51.6,7.2
		c-8.5,1.8-17.1,4.1-25.7,7.1c-3.5,1.2-6.9,2.4-10.4,3.7l3.7-3.9c5.8-6.3,11.4-12.6,16.9-18.8l16.6-18.7l16.3-18.8
		c10.9-12.5,21.9-24.7,33.1-36.8c11-12.2,22.3-24.1,34-35.4c11.7-11.2,23.6-22.4,36.5-31.3c12.6-8.6,27.6-15.1,43.1-19.5
		c7.8-2.3,15.7-4.1,23.7-5c4-0.5,8-0.5,12-0.1c4.1,0.4,9.7,1.2,11.5,2c2.2,0.9,3.5,0,1.4-1.6c-2.9-2.1-8.8-3.5-12.4-4
		c-3.4-0.5-6.7-0.6-10.1-0.6C316.9,21.3,316.1,21.4,315.2,21.4"/>
	<path class="st0" d="M233.9,107c-2.3,0-4.6,0-6.7-0.1c-2.2,0-4.5-0.1-7.1-0.3c-0.7,0-1.2,0.2-1.5,0.7c-0.3,0.5-0.5,1.1-0.5,1.9
		c0.1,1.2,0.4,2,0.9,2.2c0.5,0.2,1.2,0.3,2,0.3c1.9,0,3.3,0.3,4.3,0.8s1.7,1.2,2.2,2s0.7,1.8,0.9,2.9c0.1,1.1,0.2,2.2,0.2,3.3v46.3
		c0,1.1-0.1,2.2-0.2,3.3c-0.1,1.1-0.4,2.1-0.9,2.9c-0.5,0.9-1.2,1.5-2.2,2s-2.4,0.8-4.3,0.8c-0.9,0-1.5,0.1-2,0.4
		c-0.5,0.2-0.8,0.9-0.9,2.1c0,0.6,0.2,1.2,0.5,1.7c0.3,0.6,0.8,0.8,1.5,0.8c2.5-0.2,4.9-0.3,7.1-0.3c2.2,0,4.5-0.1,6.8-0.1h38
		c1,0,1.8-0.1,2.3-0.4c0.5-0.3,0.9-1,1.1-2l2.3-14.7c0.1-0.8-0.2-1.4-0.9-1.8c-0.7-0.4-1.3-0.7-1.9-0.9c-0.9-0.2-1.6-0.1-2.4,0.1
		c-0.7,0.2-1.3,0.7-1.6,1.5c-0.8,2.6-1.5,4.7-2.1,6.4s-1.4,3.1-2.2,4.1c-0.9,1.1-1.9,1.8-3.2,2.2c-1.3,0.4-2.9,0.7-4.9,0.8h-10.4
		c-2,0.1-3.6-0.1-4.6-0.6c-1.1-0.5-1.9-1.1-2.4-1.8c-0.5-0.7-0.8-1.5-0.9-2.4s-0.2-1.7-0.2-2.4v-48.1c0-1.1,0-2.2,0.2-3.3
		c0.1-1.1,0.4-2.1,0.9-2.9s1.2-1.5,2.2-2c1-0.5,2.4-0.8,4.3-0.8c0.8,0,1.4-0.1,2-0.2c0.5-0.2,0.8-0.9,0.9-2.2c0-0.6-0.2-1.2-0.5-1.7
		c-0.3-0.6-0.8-0.8-1.6-0.8C243.4,106.8,238.6,107,233.9,107"/>
	<path class="st0" d="M354.2,106.9c-1.9,0-4.1,0.1-6.4,0.1s-4.5,0-6.4-0.1c-1.9,0-4.1-0.1-6.6-0.3c-0.8,0-1.3,0.3-1.6,0.8
		c-0.3,0.6-0.5,1.1-0.5,1.7c0.1,1.3,0.4,2.1,0.9,2.2c0.5,0.2,1.2,0.2,2,0.2c1.9,0,3.5,0.1,4.7,0.4c1.2,0.3,2.1,1,2.7,2
		c0.6,1.1,1,2.7,1.2,4.9s0.3,5.2,0.3,9v30.7c0,2.1-0.3,4.2-0.9,6.2c-0.6,2.1-1.6,3.9-3.1,5.6c-1.5,1.7-3.5,3-6,4
		c-2.5,1-5.7,1.5-9.7,1.5c-4.1,0-7.4-0.6-9.8-1.9c-2.4-1.2-4.3-2.8-5.6-4.7s-2.1-3.9-2.5-6.1c-0.4-2.2-0.6-4.3-0.6-6.4v-36.4
		c0-1.2,0.1-2.3,0.2-3.4c0.1-1.1,0.4-2,1-2.9c0.5-0.8,1.3-1.5,2.4-2c1-0.5,2.6-0.8,4.6-0.8c0.7,0,1.2-0.1,1.6-0.4
		c0.4-0.2,0.6-0.9,0.7-2.1c0-0.6-0.2-1.2-0.5-1.7c-0.3-0.6-0.9-0.8-1.6-0.8c-5,0.2-9.9,0.4-14.5,0.4c-2.3,0-4.6,0-6.7-0.1
		c-2.2,0-4.5-0.1-7-0.3c-0.8,0-1.3,0.3-1.6,0.8c-0.3,0.6-0.5,1.1-0.5,1.7c0.1,1.3,0.4,2.1,0.9,2.2c0.5,0.2,1.2,0.2,2,0.2
		c1.9,0,3.3,0.3,4.3,0.8c1,0.5,1.7,1.2,2.2,2s0.8,1.8,0.9,2.9c0.1,1.1,0.2,2.2,0.2,3.3v39.8c0,2.9,0.6,5.7,1.8,8.3
		c1.2,2.7,3,5.1,5.3,7.2c2.3,2.1,5.2,3.8,8.7,5.1c3.5,1.3,7.6,1.9,12.2,1.9c3,0,6.2-0.4,9.5-1.3c3.3-0.9,6.3-2.2,9-4.1
		c2.7-1.9,5-4.3,6.8-7.2s2.7-6.4,2.7-10.6v-32.6c0-3.7,0.1-6.7,0.3-8.8s0.6-3.7,1.3-4.7c0.6-1,1.6-1.6,2.9-1.9c1.3-0.2,3-0.4,5-0.4
		c0.7,0,1.2-0.1,1.6-0.4c0.4-0.2,0.6-0.9,0.7-2.1c0-0.6-0.2-1.2-0.5-1.7c-0.3-0.6-0.9-0.8-1.6-0.8
		C358.3,106.8,356.1,106.9,354.2,106.9"/>
	<path class="st0" d="M373.2,106.5c-0.9,0.1-1.3,0.8-1.3,2.2c0,1.2,0.2,1.9,0.6,2.1c0.4,0.2,1.2,0.4,2.3,0.6
		c2.5,0.6,4.6,1.5,6.4,2.7c1.8,1.3,3.6,3.4,5.6,6.4l14.8,23.5l-16.8,24c-1.1,1.6-2.1,2.8-2.9,3.9c-0.9,1-1.7,1.8-2.6,2.4
		c-0.9,0.6-1.8,1-2.9,1.3c-1,0.3-2.3,0.4-3.8,0.4c-0.9,0-1.5,0.1-2,0.2c-0.5,0.2-0.8,0.9-0.9,2.2c0,0.6,0.1,1.2,0.5,1.7
		c0.3,0.6,0.8,0.8,1.6,0.8c1.2-0.1,2.3-0.1,3.3-0.2c0.9,0,1.8-0.1,2.7-0.1c0.9,0,1.8-0.1,2.7-0.1h3.1c2.3,0,4.4,0,6.2,0.1
		c1.8,0,4,0.1,6.4,0.3c0.7,0,1.2-0.3,1.5-0.8c0.3-0.6,0.5-1.1,0.5-1.7c-0.1-1.3-0.4-2.1-0.9-2.2s-1.2-0.2-2-0.2
		c-1.3,0-2.5-0.1-3.5-0.2s-1.8-0.4-2.3-0.8c-0.5-0.4-0.7-1-0.6-1.7c0.1-0.7,0.5-1.7,1.4-3l14.8-21.4l14.8,21.4
		c1.1,1.5,1.3,2.8,0.7,4s-2.1,1.7-4.4,1.7c-0.8,0-1.4,0.1-2,0.2c-0.5,0.2-0.9,0.9-0.9,2.2c0,0.6,0.2,1.2,0.5,1.7
		c0.3,0.6,0.8,0.8,1.6,0.8c4.9-0.2,9.7-0.4,14.1-0.4c2.3,0,4.6,0,6.8,0.1c2.2,0,4.6,0.1,7.1,0.3c0.7,0,1.2-0.3,1.5-0.8
		c0.3-0.6,0.5-1.1,0.5-1.7c-0.1-1.3-0.4-2.1-0.9-2.2c-0.5-0.2-1.2-0.2-2-0.2c-2.5,0-4.6-0.9-6.2-2.6c-1.6-1.7-3-3.5-4.3-5.5
		l-20.2-28.9l13.6-19.4c1-1.5,1.9-2.8,2.8-3.8c0.8-1.1,1.7-1.9,2.6-2.4c0.9-0.6,1.9-1,3-1.3c1.1-0.3,2.4-0.4,3.8-0.4
		c0.8,0,1.5-0.1,2-0.2c0.5-0.2,0.8-0.9,0.9-2.2c0-0.6-0.2-1.2-0.5-1.7c-0.3-0.6-0.9-0.8-1.6-0.8c-1.2,0.1-2.3,0.1-3.2,0.2
		c-0.9,0-1.8,0.1-2.7,0.1c-0.9,0-1.8,0.1-2.7,0.1h-3.1c-2.3,0-4.4,0-6.2-0.1c-1.8,0-4-0.1-6.4-0.3c-0.7,0-1.2,0.3-1.5,0.8
		c-0.3,0.6-0.5,1.1-0.5,1.7c0.1,1.3,0.4,2.1,0.9,2.2c0.5,0.2,1.2,0.2,2,0.2c1.3,0,2.5,0.1,3.5,0.2s1.8,0.4,2.3,0.8s0.8,1,0.7,1.7
		c-0.1,0.8-0.6,1.8-1.4,3l-11.5,16.8l-9.5-15.6c-1.6-2.2-3.1-4-4.5-5.6c-1.5-1.6-3.1-2.8-4.8-3.8c-1.7-1-3.7-1.7-5.8-2.1
		c-2.1-0.4-4.5-0.6-7.2-0.6C375.2,106.4,374.1,106.4,373.2,106.5"/>
	<path class="st0" d="M477.5,175c-2.9-1.8-5.4-4.3-7.3-7.4c-1.9-3.1-3.4-6.6-4.3-10.6c-0.9-4-1.4-8.2-1.4-12.7
		c0-4.7,0.4-9.1,1.3-13.3c0.9-4.2,2.3-7.9,4.2-11.1c1.9-3.2,4.3-5.7,7.3-7.6c2.9-1.9,6.4-2.8,10.5-2.8c3.9,0,7.4,0.9,10.4,2.7
		c3,1.8,5.5,4.2,7.4,7.2c2,3,3.4,6.6,4.4,10.6c1,4,1.5,8.2,1.5,12.5c0,4.7-0.5,9.1-1.4,13.4c-0.9,4.2-2.4,8-4.3,11.2
		c-1.9,3.2-4.4,5.8-7.4,7.7c-3,1.9-6.5,2.9-10.6,2.9C483.8,177.8,480.4,176.9,477.5,175 M474.9,107.2c-4.4,1.7-8.4,4.3-11.9,7.8
		c-3.6,3.4-6.5,7.6-8.7,12.6c-2.3,5-3.4,10.7-3.4,17.2c0,5,0.9,9.8,2.6,14.4c1.7,4.6,4.2,8.7,7.4,12.2c3.2,3.5,7,6.4,11.6,8.5
		c4.6,2.1,9.7,3.2,15.4,3.2c4.2,0,8.6-0.9,13-2.7c4.4-1.8,8.5-4.4,12.1-7.8c3.6-3.4,6.5-7.6,8.8-12.6c2.3-5,3.4-10.7,3.4-17.2
		c0-4.9-0.9-9.6-2.6-14.2c-1.7-4.6-4.2-8.7-7.4-12.2c-3.2-3.5-7.1-6.4-11.7-8.5s-9.8-3.2-15.6-3.2
		C483.6,104.6,479.3,105.5,474.9,107.2"/>
</g>
</svg>
