<?xml version="1.0" encoding="utf-8"?>
<!-- Generator: Adobe Illustrator 25.4.1, SVG Export Plug-In . SVG Version: 6.00 Build 0)  -->
<svg version="1.1" id="Livello_1" xmlns="http://www.w3.org/2000/svg" xmlns:xlink="http://www.w3.org/1999/xlink" x="0px" y="0px"
	 viewBox="0 0 560.1 157.8" style="enable-background:new 0 0 560.1 157.8;" xml:space="preserve">
<style type="text/css">
	.st0{fill:#FFFFFF;}
	.st1{fill:#D9C5A0;}
</style>
<g>
	<path class="st0" d="M341.7,100.7c0.2-0.4,0.3-0.7,0.3-1.1c-0.1-0.8-0.3-1.3-0.6-1.4c-0.3-0.1-0.7-0.1-1.2-0.1
		c-1.2,0-2-0.2-2.7-0.5c-0.6-0.3-1.1-0.7-1.4-1.2c-0.3-0.6-0.5-1.1-0.6-1.8c-0.1-0.7-0.1-1.4-0.1-2V63.9c0-0.7,0.1-1.4,0.1-2
		c0.1-0.7,0.2-1.3,0.6-1.8c0.3-0.5,0.7-0.9,1.4-1.2c0.6-0.3,1.5-0.5,2.7-0.5c0.6,0,0.9-0.1,1.2-0.1c0.3-0.1,0.5-0.6,0.6-1.4
		c0-0.4-0.1-0.7-0.3-1.1c-0.2-0.4-0.6-0.5-1-0.5c-3.2,0.1-6.1,0.2-9,0.2c-1.4,0-2.8,0-4.2-0.1c-1.4,0-2.8-0.1-4.4-0.2
		c-0.5,0-0.8,0.2-1,0.5c-0.2,0.4-0.3,0.7-0.3,1.1c0.1,0.8,0.2,1.3,0.6,1.4c0.3,0.1,0.7,0.1,1.2,0.1c1.2,0,2,0.1,2.7,0.5
		c0.6,0.3,1.1,0.7,1.4,1.2c0.3,0.6,0.5,1.1,0.6,1.8s0.1,1.4,0.2,2v28.6c-0.1,0.7-0.1,1.4-0.2,2s-0.2,1.3-0.6,1.8
		c-0.3,0.6-0.7,0.9-1.4,1.2c-0.6,0.3-1.5,0.5-2.7,0.5c-0.5,0-0.9,0.1-1.2,0.1c-0.4,0.1-0.6,0.6-0.6,1.4c0,0.4,0.1,0.7,0.3,1.1
		c0.2,0.4,0.6,0.5,1,0.5c1.5-0.1,3-0.1,4.4-0.2c1.4,0,2.8-0.1,4.3-0.1c2.8,0,5.8,0.1,9,0.2C341.1,101.2,341.5,101.1,341.7,100.7"/>
	<path class="st0" d="M388.1,57.3c0-0.7-0.2-1.1-0.6-1.4c-0.4-0.2-0.8-0.4-1.4-0.4h-35.3c-0.6,0-1,0.1-1.4,0.4
		c-0.4,0.2-0.6,0.7-0.6,1.4l-0.2,10.2c0,0.5,0.2,0.9,0.6,1.1c0.4,0.2,0.7,0.4,1.2,0.4c0.6,0,1.1-0.1,1.6-0.3c0.6-0.2,0.9-0.6,0.9-1
		c0.2-1.6,0.5-3,0.8-4.2c0.3-1.2,0.7-2.1,1.2-2.9c0.5-0.7,1.2-1.4,2-1.7c0.8-0.4,1.8-0.6,3.1-0.6h4.9v34.5c0,0.7-0.1,1.4-0.1,2
		c-0.1,0.7-0.2,1.3-0.6,1.8c-0.3,0.6-0.7,0.9-1.4,1.2c-0.6,0.3-1.5,0.5-2.7,0.5c-0.6,0-0.9,0.1-1.2,0.1c-0.3,0.1-0.5,0.6-0.6,1.4
		c0,0.4,0.1,0.7,0.3,1.1c0.2,0.3,0.6,0.5,1,0.5c3.1-0.1,6.1-0.2,9-0.2c1.4,0,2.8,0,4.1,0.1c1.4,0,2.8,0.1,4.4,0.2
		c0.5,0,0.8-0.2,1-0.5c0.2-0.4,0.3-0.7,0.3-1.1c-0.1-0.8-0.2-1.3-0.6-1.4c-0.4-0.1-0.7-0.1-1.2-0.1c-1.2,0-2-0.2-2.7-0.5
		c-0.6-0.3-1.1-0.7-1.4-1.2c-0.3-0.6-0.5-1.1-0.6-1.8s-0.1-1.4-0.1-2V58.2h4.9c1.2,0.1,2.3,0.2,3.1,0.6c0.8,0.4,1.4,0.9,2,1.7
		c0.5,0.7,0.9,1.7,1.2,2.9c0.3,1.2,0.6,2.5,0.8,4.2c0.1,0.4,0.4,0.7,0.9,1c0.5,0.2,1.1,0.3,1.5,0.3c0.4,0,0.8-0.1,1.2-0.4
		c0.4-0.2,0.6-0.6,0.6-1.1L388.1,57.3z"/>
	<path class="st0" d="M436.5,100.7c0.2-0.4,0.3-0.7,0.3-1.1c-0.1-0.8-0.2-1.3-0.6-1.4c-0.3-0.1-0.7-0.1-1.2-0.1
		c-0.7,0-1.4-0.2-2-0.6c-0.6-0.4-1-0.8-1.4-1.4c-0.4-0.6-0.7-1.1-1-1.8c-0.3-0.7-0.6-1.3-0.8-1.9l-12.1-29.9
		c-0.7-1.6-1.4-2.9-2.1-3.9c-0.7-1-1.5-1.8-2.4-2.3c-0.9-0.6-1.9-0.9-3-1.1c-1.1-0.2-2.5-0.3-4-0.3c-0.8,0-1.5,0.1-2,0.1
		c-0.6,0.1-0.8,0.5-0.8,1.4c0,0.7,0.1,1.1,0.4,1.2s0.7,0.2,1.4,0.4c0.6,0.1,1.1,0.2,1.7,0.4c0.6,0.2,1,0.4,1.4,0.7
		c0.4,0.4,0.6,0.7,0.7,1.3c0.1,0.6,0,1.2-0.4,2.1l-12.6,29.9c-0.3,0.7-0.6,1.4-0.9,2c-0.3,0.7-0.6,1.3-1.1,1.8
		c-0.4,0.5-0.9,0.9-1.5,1.2c-0.6,0.3-1.4,0.5-2.3,0.5c-0.6,0-0.9,0.1-1.2,0.1c-0.3,0.1-0.5,0.6-0.6,1.4c0,0.4,0.1,0.7,0.3,1.1
		c0.2,0.3,0.6,0.5,1,0.5c0.7-0.1,1.4-0.1,2-0.1c0.6,0,1.1-0.1,1.6-0.1c0.5,0,1.1-0.1,1.5-0.1h1.9c1.4,0,2.7,0,3.8,0.1
		c1.1,0,2.5,0.1,4,0.2c0.4,0,0.7-0.2,1-0.5c0.2-0.4,0.3-0.7,0.3-1.1c-0.1-0.8-0.2-1.3-0.6-1.4c-0.3-0.1-0.7-0.1-1.2-0.1
		c-1.4,0-2.5-0.1-3.3-0.2c-0.8-0.1-1.4-0.4-1.6-0.7c-0.3-0.4-0.4-0.9-0.2-1.7c0.1-0.7,0.4-1.7,0.8-3c0.4-1.1,1.2-3,2.3-6h17.9l2.5,6
		c0.4,1,0.6,1.9,0.7,2.5s0.1,1.2-0.1,1.7s-0.6,0.7-1.2,1c-0.6,0.2-1.5,0.3-2.7,0.3c-0.6,0-0.9,0.1-1.2,0.1c-0.3,0.1-0.5,0.6-0.6,1.4
		c0,0.4,0.1,0.7,0.3,1.1c0.2,0.3,0.6,0.5,1,0.5c3.1-0.1,6.1-0.2,9-0.2c1.4,0,2.7,0,3.9,0.1c1.2,0,2.5,0.1,4,0.2
		C435.9,101.2,436.2,101.1,436.5,100.7 M403.3,83.5l7.7-18.6h0.2l7.3,18.6H403.3z"/>
	<path class="st0" d="M478.3,90.4c0.1-0.5-0.1-0.9-0.6-1.1c-0.4-0.2-0.8-0.4-1.2-0.6c-0.6-0.1-1.1-0.1-1.5,0.1
		c-0.4,0.1-0.8,0.4-1,0.9c-0.5,1.6-0.9,2.9-1.3,4c-0.4,1.1-0.9,1.9-1.4,2.5c-0.6,0.7-1.2,1.1-2,1.4s-1.8,0.4-3.1,0.5h-6.5
		c-1.2,0.1-2.2-0.1-2.9-0.4c-0.7-0.3-1.2-0.7-1.5-1.1c-0.3-0.4-0.5-0.9-0.6-1.5s-0.1-1.1-0.1-1.5V63.9c0-0.7,0.1-1.4,0.1-2
		c0.1-0.7,0.2-1.3,0.6-1.8c0.3-0.6,0.7-0.9,1.4-1.2s1.5-0.5,2.7-0.5c0.5,0,0.9-0.1,1.2-0.1c0.4-0.1,0.6-0.6,0.6-1.4
		c0-0.4-0.1-0.7-0.3-1.1c-0.2-0.4-0.6-0.5-1-0.5c-3.2,0.1-6.1,0.2-9,0.2c-1.4,0-2.8,0-4.2-0.1c-1.4,0-2.8-0.1-4.4-0.2
		c-0.4,0-0.7,0.1-0.9,0.4s-0.3,0.7-0.3,1.2c0.1,0.7,0.2,1.2,0.6,1.4c0.3,0.1,0.7,0.2,1.2,0.2c1.2,0,2,0.1,2.7,0.5
		c0.6,0.3,1.1,0.7,1.4,1.2c0.3,0.6,0.5,1.1,0.6,1.8c0.1,0.7,0.1,1.4,0.1,2v28.6c0,0.7-0.1,1.4-0.1,2c-0.1,0.7-0.2,1.3-0.6,1.8
		c-0.3,0.6-0.7,0.9-1.4,1.2c-0.6,0.3-1.5,0.5-2.7,0.5c-0.6,0-0.9,0.1-1.2,0.2c-0.3,0.1-0.5,0.6-0.6,1.3c0,0.4,0.1,0.7,0.3,1.1
		c0.2,0.3,0.5,0.5,0.9,0.5c1.6-0.1,3.1-0.1,4.5-0.2c1.4,0,2.8-0.1,4.2-0.1h23.7c0.6,0,1.1-0.1,1.4-0.2c0.3-0.2,0.6-0.6,0.7-1.2
		L478.3,90.4z"/>
	<path class="st0" d="M503.1,101.2c0.4,0,0.7-0.2,1-0.5c0.2-0.4,0.3-0.7,0.3-1.1c-0.1-0.8-0.3-1.3-0.6-1.4c-0.3-0.1-0.7-0.1-1.2-0.1
		c-1.2,0-2-0.1-2.7-0.5c-0.6-0.3-1.1-0.7-1.4-1.2c-0.3-0.6-0.5-1.1-0.6-1.8c-0.1-0.7-0.1-1.4-0.1-2V63.9c0-0.7,0.1-1.4,0.1-2
		c0.1-0.7,0.2-1.3,0.6-1.8c0.3-0.6,0.7-0.9,1.4-1.2c0.6-0.3,1.5-0.5,2.7-0.5c0.6,0,0.9-0.1,1.2-0.1c0.3-0.1,0.5-0.6,0.6-1.4
		c0-0.4-0.1-0.7-0.3-1.1c-0.2-0.4-0.6-0.5-1-0.5c-3.2,0.1-6.1,0.2-9,0.2c-1.4,0-2.8,0-4.2-0.1c-1.4,0-2.8-0.1-4.4-0.2
		c-0.5,0-0.8,0.2-1,0.5c-0.2,0.4-0.3,0.7-0.3,1.1c0.1,0.8,0.2,1.3,0.6,1.4c0.4,0.1,0.7,0.1,1.2,0.1c1.2,0,2,0.2,2.7,0.5
		c0.6,0.3,1.1,0.7,1.4,1.2c0.3,0.6,0.5,1.1,0.6,1.8c0.1,0.7,0.1,1.4,0.2,2v28.6c-0.1,0.7-0.1,1.4-0.2,2s-0.2,1.3-0.6,1.8
		c-0.3,0.6-0.7,0.9-1.4,1.2c-0.6,0.3-1.5,0.5-2.7,0.5c-0.5,0-0.9,0.1-1.2,0.1c-0.4,0.1-0.6,0.6-0.6,1.4c0,0.4,0.1,0.7,0.3,1.1
		c0.2,0.4,0.6,0.5,1,0.5c1.5-0.1,3-0.2,4.4-0.2c1.4,0,2.8-0.1,4.3-0.1C497,101,500,101.1,503.1,101.2"/>
	<path class="st0" d="M556.3,98.3c-0.3-0.1-0.7-0.1-1.2-0.1c-0.7,0-1.4-0.2-2-0.6c-0.6-0.4-1-0.8-1.4-1.4c-0.4-0.6-0.7-1.1-1-1.8
		c-0.3-0.7-0.6-1.3-0.8-1.9l-12.1-29.9c-0.7-1.6-1.4-2.9-2.1-3.9c-0.7-1-1.5-1.8-2.4-2.3c-0.9-0.6-1.9-0.9-3-1.1
		c-1.1-0.2-2.5-0.3-4-0.3c-0.8,0-1.5,0.1-2,0.1c-0.6,0.1-0.8,0.5-0.8,1.4c0,0.7,0.1,1.1,0.4,1.2c0.2,0.1,0.7,0.2,1.4,0.4
		c0.6,0.1,1.1,0.2,1.7,0.4c0.6,0.2,1,0.4,1.4,0.7c0.4,0.4,0.6,0.7,0.7,1.3s0,1.2-0.4,2.1l-12.6,29.9c-0.3,0.7-0.6,1.4-0.9,2
		s-0.6,1.3-1.1,1.8c-0.4,0.6-0.9,0.9-1.5,1.2c-0.6,0.3-1.4,0.5-2.3,0.5c-0.6,0-0.9,0.1-1.2,0.1c-0.3,0.1-0.5,0.6-0.6,1.4
		c0,0.4,0.1,0.7,0.3,1.1c0.2,0.3,0.6,0.5,1,0.5c0.7-0.1,1.4-0.1,2-0.1c0.6,0,1.1-0.1,1.6-0.1c0.5,0,1.1-0.1,1.5-0.1h1.9
		c1.4,0,2.7,0,3.8,0.1c1.1,0,2.5,0.1,4,0.2c0.4,0,0.7-0.2,1-0.5c0.2-0.4,0.3-0.7,0.3-1.1c-0.1-0.8-0.2-1.3-0.6-1.4
		c-0.3-0.1-0.7-0.1-1.2-0.1c-1.4,0-2.5-0.1-3.3-0.2s-1.4-0.4-1.6-0.7c-0.3-0.4-0.4-0.9-0.2-1.7c0.1-0.7,0.4-1.7,0.8-3
		c0.4-1.1,1.2-3,2.3-6h17.8l2.5,6c0.4,1,0.6,1.9,0.7,2.5c0.1,0.7,0.1,1.2-0.1,1.7c-0.2,0.4-0.6,0.7-1.2,1c-0.6,0.2-1.5,0.3-2.7,0.3
		c-0.6,0-0.9,0.1-1.2,0.1c-0.3,0.1-0.5,0.6-0.6,1.4c0,0.4,0.1,0.7,0.3,1.1c0.2,0.3,0.6,0.5,1,0.5c3.1-0.1,6.1-0.2,9-0.2
		c1.4,0,2.7,0,3.9,0.1c1.2,0,2.5,0.1,4,0.2c0.4,0,0.7-0.2,1-0.5c0.2-0.4,0.3-0.7,0.3-1.1C556.8,98.9,556.6,98.4,556.3,98.3
		 M523.4,83.5l7.7-18.6h0.2l7.3,18.6H523.4z"/>
	<g>
		<path id="SVGID_00000075146303034982159280000003898704917182976157_" class="st0" d="M323.2,126c-0.8,0.4-1.4,0.9-1.9,1.5
			c-0.4,0.6-0.7,1.4-0.7,2.2s0.1,1.5,0.4,2s0.7,1.1,1.4,1.5c0.6,0.4,1.4,0.9,2.4,1.3c1.1,0.4,1.8,0.8,2.4,1.2
			c0.6,0.3,1.1,0.7,1.4,1.1c0.3,0.4,0.4,0.9,0.4,1.4c0,0.7-0.3,1.3-0.9,1.7c-0.6,0.4-1.5,0.6-2.7,0.6c-0.7,0-1.4-0.1-2.1-0.3
			c-0.7-0.2-1.4-0.4-1.9-0.7l-0.5,1.8c0.3,0.3,1,0.6,2,0.8c1,0.2,1.9,0.4,2.6,0.4c1.2,0,2.3-0.2,3.2-0.6c0.9-0.4,1.5-0.9,2-1.5
			c0.4-0.7,0.7-1.4,0.7-2.3c0-1.1-0.4-2-1.1-2.7c-0.7-0.7-1.7-1.4-3.2-2c-1.1-0.5-1.9-0.9-2.5-1.2s-1-0.7-1.3-1.1
			c-0.3-0.4-0.4-0.9-0.4-1.4c0-0.7,0.3-1.2,0.9-1.6c0.6-0.4,1.4-0.6,2.3-0.6c0.7,0,1.3,0.1,1.8,0.2c0.5,0.2,1.1,0.4,1.6,0.6l0.7-1.8
			c-0.6-0.3-1.3-0.6-2-0.7c-0.7-0.2-1.5-0.3-2.3-0.3C324.9,125.4,324,125.6,323.2,126"/>
	</g>
	<g>
		<path id="SVGID_00000047035727358333485130000003318584840085693369_" class="st0" d="M340.9,127.7h2.3c1.2,0,2.2,0.2,2.8,0.7
			c0.6,0.5,1,1.3,1,2.5c-0.1,1.1-0.4,1.9-1.1,2.4c-0.7,0.6-1.6,0.8-2.8,0.8h-2.2L340.9,127.7L340.9,127.7z M338.6,125.8v16.3h2.3v-6
			h2.1c1.2,0,2.2-0.2,3.2-0.6c1-0.4,1.7-0.9,2.3-1.7c0.6-0.8,0.9-1.7,0.9-2.9c0-1.7-0.6-3-1.7-3.8c-1.1-0.8-2.6-1.2-4.5-1.2
			L338.6,125.8L338.6,125.8z"/>
	</g>
	<g>
		<path id="SVGID_00000060752687238252123100000014351724744797563528_" class="st0" d="M360.4,139.6c-0.8-0.6-1.4-1.3-1.9-2.3
			c-0.4-1-0.7-2.1-0.7-3.3s0.2-2.4,0.7-3.4c0.4-1,1.1-1.8,1.9-2.3c0.8-0.6,1.7-0.9,2.8-0.9c1,0,1.9,0.3,2.7,0.8
			c0.8,0.6,1.4,1.3,1.9,2.3c0.4,1,0.7,2.1,0.7,3.3c0,1.2-0.2,2.4-0.7,3.4c-0.4,1-1.1,1.8-1.9,2.3s-1.7,0.9-2.8,0.9
			C362.1,140.5,361.2,140.2,360.4,139.6 M359.2,126.6c-1.2,0.7-2.1,1.8-2.8,3.1s-1,2.7-1,4.3s0.3,3.1,1,4.3c0.7,1.3,1.6,2.3,2.8,3
			c1.2,0.7,2.5,1.1,4,1.1c1.5,0,2.8-0.4,4-1.2c1.2-0.7,2.1-1.8,2.8-3.1c0.7-1.3,1-2.7,1-4.3c0-1.6-0.3-3.1-1-4.3
			c-0.7-1.3-1.6-2.3-2.8-3c-1.2-0.7-2.5-1.1-4-1.1C361.7,125.5,360.4,125.8,359.2,126.6"/>
	</g>
	<g>
		
			<rect id="SVGID_00000101798483397450925000000014272657564622082184_" x="378.3" y="125.8" class="st0" width="2.3" height="16.3"/>
	</g>
	<g>
		<polygon id="SVGID_00000072260643917873039570000001713483567836987059_" class="st0" points="389.3,125.8 389.3,142.1 
			399.2,142.1 398.9,140.3 391.6,140.3 391.6,125.8 		"/>
	</g>
	<g>
		<polygon id="SVGID_00000047781136515123871830000008453578290879067818_" class="st0" points="413.8,126.2 419.2,135.6 
			419.2,142.1 421.5,142.1 421.6,135.6 427.2,125.8 424.8,125.8 420.4,133.3 416.1,125.4 		"/>
	</g>
	<g>
		<path id="SVGID_00000075880196305069610650000007689237276543419008_" class="st0" d="M437.7,139.6c-0.8-0.6-1.4-1.3-1.9-2.3
			c-0.4-1-0.7-2.1-0.7-3.3s0.2-2.4,0.7-3.4c0.4-1,1.1-1.8,1.9-2.3c0.8-0.6,1.7-0.9,2.8-0.9c1,0,1.9,0.3,2.7,0.8
			c0.8,0.6,1.4,1.3,1.9,2.3c0.4,1,0.7,2.1,0.7,3.3c0,1.2-0.2,2.4-0.7,3.4c-0.4,1-1.1,1.8-1.9,2.3s-1.7,0.9-2.8,0.9
			C439.4,140.5,438.5,140.2,437.7,139.6 M436.5,126.6c-1.2,0.7-2.1,1.8-2.8,3.1s-1,2.7-1,4.3s0.3,3.1,1,4.3c0.7,1.3,1.6,2.3,2.8,3
			c1.2,0.7,2.5,1.1,4,1.1c1.5,0,2.8-0.4,4-1.2c1.2-0.8,2.1-1.8,2.8-3.1c0.7-1.3,1-2.7,1-4.3c0-1.6-0.3-3.1-1-4.3
			c-0.7-1.3-1.6-2.3-2.8-3c-1.2-0.7-2.5-1.1-4-1.1C439,125.5,437.7,125.8,436.5,126.6"/>
	</g>
	<g>
		<path id="SVGID_00000057135299582509368320000013543952513748073869_" class="st0" d="M465.8,125.8V136c0,1.4-0.4,2.4-1.1,3.2
			c-0.7,0.8-1.7,1.2-3,1.2s-2.2-0.4-2.9-1.2s-1.1-1.9-1.1-3.2v-10.3h-2.3v10.5c0,1.2,0.2,2.2,0.8,3.2c0.5,0.9,1.2,1.7,2.2,2.2
			c1,0.5,2.1,0.8,3.3,0.8c1.3,0,2.4-0.2,3.3-0.8c1-0.6,1.7-1.2,2.2-2.2c0.5-0.9,0.8-2,0.8-3.2v-10.5H465.8L465.8,125.8z"/>
	</g>
	<g>
		<path id="SVGID_00000110431860816128563910000014541543374689186974_" class="st0" d="M478.8,127.7h2.3c1.2,0,2.2,0.2,2.8,0.7
			c0.7,0.4,1,1.2,1,2.3s-0.4,1.8-1.1,2.3c-0.7,0.5-1.7,0.7-2.8,0.7h-2.2V127.7L478.8,127.7z M476.5,125.8v16.3h2.3v-6.5h2.1
			c0.7,0,1.2,0,1.5-0.1l3.6,6.6h2.5l-4.1-7.2c0.9-0.4,1.5-0.9,2-1.7c0.5-0.7,0.8-1.6,0.8-2.6c0-1.6-0.6-2.8-1.7-3.6
			c-1.1-0.8-2.6-1.2-4.5-1.2L476.5,125.8L476.5,125.8z"/>
	</g>
	<g>
		<path id="SVGID_00000081630497013789838510000010263269670393539217_" class="st0" d="M496.6,126c-0.8,0.4-1.4,0.9-1.9,1.5
			c-0.4,0.6-0.7,1.4-0.7,2.2s0.1,1.5,0.4,2s0.7,1.1,1.4,1.5c0.6,0.4,1.4,0.9,2.4,1.3c1.1,0.4,1.8,0.8,2.4,1.2
			c0.6,0.3,1.1,0.7,1.4,1.1c0.3,0.4,0.5,0.9,0.5,1.4c0,0.7-0.3,1.3-0.9,1.7c-0.6,0.4-1.5,0.6-2.7,0.6c-0.7,0-1.4-0.1-2.1-0.3
			c-0.7-0.2-1.4-0.4-1.9-0.7l-0.6,1.8c0.3,0.3,1,0.6,2,0.8s1.9,0.4,2.6,0.4c1.2,0,2.3-0.2,3.2-0.6c0.9-0.4,1.5-0.9,2-1.5
			c0.4-0.7,0.7-1.4,0.7-2.3c0-1.1-0.4-2-1.1-2.7c-0.7-0.7-1.7-1.4-3.2-2c-1.1-0.5-1.9-0.9-2.5-1.2c-0.6-0.3-1-0.7-1.3-1.1
			c-0.3-0.4-0.4-0.9-0.4-1.4c0-0.7,0.3-1.2,0.9-1.6c0.6-0.4,1.4-0.6,2.3-0.6c0.7,0,1.3,0.1,1.8,0.2c0.5,0.1,1.1,0.4,1.6,0.6l0.7-1.8
			c-0.6-0.3-1.3-0.6-2-0.7c-0.7-0.2-1.5-0.3-2.3-0.3C498.4,125.4,497.4,125.6,496.6,126"/>
	</g>
	<g>
		<polygon id="SVGID_00000125604577747313845560000010944074680633978538_" class="st0" points="512,125.8 512,142.1 522.4,142.1 
			522.1,140.3 514.3,140.3 514.3,134.7 520.2,134.7 519.9,132.9 514.3,132.9 514.3,127.6 522.4,127.6 522.1,125.8 		"/>
	</g>
	<g>
		<polygon id="SVGID_00000084530651589215532420000005484376653275130802_" class="st0" points="529.4,125.8 529.4,142.1 
			539.2,142.1 539,140.3 531.6,140.3 531.6,125.8 		"/>
	</g>
	<g>
		<polygon id="SVGID_00000147206026002726291680000004741834053523251103_" class="st0" points="546,125.8 546,142.1 548.3,142.1 
			548.3,134.8 553.8,134.8 553.6,133.1 548.3,133.1 548.3,127.6 555.1,127.6 554.8,125.8 		"/>
	</g>
	<path class="st1" d="M165.8,2.6c-5.2,0.1-10.3,0.8-15.4,1.8c-10.1,2.1-20.1,5.4-29.1,10.7c-8.8,5.4-16.9,11.9-24.7,18.7
		c-7.7,6.9-15.1,14-22.3,21.3c-14.5,14.7-28.3,30-42.1,45.3c-3.5,3.8-6.9,7.6-10.5,11.4c-3.5,3.8-7.2,7.2-11.1,10.7
		c-1.9,1.7-3.8,3.5-5.6,5.4c-0.4,0.5-1,1.1-1.4,1.8c-0.4,0.7-0.6,1.7-0.4,2.7c0.3,1,1,1.6,1.6,2c0.7,0.4,1.3,0.7,2,1
		c2.7,0.9,5.4,1,8,0.9c2.7-0.1,5.4-0.7,7.8-1.6c4.9-1.7,9.7-3.5,14.5-5.3c4.8-1.7,9.7-3.1,14.7-4.3c10-2.4,20.1-4.1,30.3-5
		c10.2-0.8,20.5-1.4,30.5,0.9c10,2.1,19.7,5.6,29.2,9.3c9.5,3.8,18.9,8.1,28.3,12.2c9.5,4.1,18.8,8.5,28.9,11.2
		c5,1.3,10.3,1.9,15.5,1.2c5.2-0.6,10.3-2.3,14.7-5c9-5.4,15.6-13.9,21-22.6c0,0,0.2-0.3,0.4-0.7c0.3-0.7-0.5-0.9-0.9-0.4
		c-0.2,0.3-0.4,0.6-0.4,0.6c-5.4,8.7-12.1,16.8-20.8,21.8c-4.3,2.5-9.2,4.1-14.1,4.6s-10-0.1-14.8-1.4c-9.5-3.4-18.4-8.7-27.5-13.4
		l-13.7-7.3c-4.6-2.4-9.3-4.7-14-6.9c-4.8-2.2-9.6-4.3-14.6-6.3c-5-1.9-10.1-3.6-15.5-4.9c-2.7-0.7-5.4-1.2-8.3-1.7
		c-1.4-0.2-2.8-0.4-4.3-0.5l-2.2-0.2l-2-0.1c-5.4-0.2-10.8-0.2-16.2,0.2c-10.8,0.7-21.3,2.2-31.9,4.5c-5.3,1.1-10.6,2.5-15.9,4.4
		c-2.2,0.7-4.3,1.5-6.4,2.3l2.3-2.4c3.6-3.9,7-7.8,10.5-11.6l10.3-11.6l10.1-11.6C67.1,77,73.9,69.4,80.8,62
		c6.8-7.5,13.8-14.9,21-21.9c7.2-6.9,14.6-13.9,22.6-19.4c7.8-5.3,17.1-9.3,26.7-12.1c4.8-1.4,9.7-2.5,14.7-3.1
		c2.5-0.3,4.9-0.3,7.4-0.1c2.5,0.2,6,0.7,7.1,1.2c1.4,0.6,2.2,0,0.9-1c-1.8-1.3-5.4-2.2-7.7-2.5c-2.1-0.3-4.1-0.4-6.2-0.4
		C166.9,2.5,166.4,2.6,165.8,2.6"/>
	<path class="st1" d="M115.5,55.5c-1.4,0-2.8,0-4.1-0.1c-1.4,0-2.8-0.1-4.4-0.2c-0.4,0-0.7,0.1-0.9,0.4c-0.2,0.3-0.3,0.7-0.3,1.2
		c0.1,0.7,0.2,1.2,0.6,1.4c0.3,0.1,0.7,0.2,1.2,0.2c1.2,0,2,0.2,2.7,0.5c0.6,0.3,1.1,0.7,1.4,1.2c0.3,0.5,0.4,1.1,0.6,1.8
		c0.1,0.7,0.1,1.4,0.1,2v28.6c0,0.7-0.1,1.4-0.1,2c-0.1,0.7-0.2,1.3-0.6,1.8c-0.3,0.6-0.7,0.9-1.4,1.2c-0.6,0.3-1.5,0.5-2.7,0.5
		c-0.6,0-0.9,0.1-1.2,0.2c-0.3,0.1-0.5,0.6-0.6,1.3c0,0.4,0.1,0.7,0.3,1.1c0.2,0.4,0.5,0.5,0.9,0.5c1.5-0.1,3-0.2,4.4-0.2
		c1.4,0,2.8-0.1,4.2-0.1h23.5c0.6,0,1.1-0.1,1.4-0.2c0.3-0.2,0.6-0.6,0.7-1.2l1.4-9.1c0.1-0.5-0.1-0.9-0.6-1.1
		c-0.4-0.2-0.8-0.4-1.2-0.6c-0.6-0.1-1-0.1-1.5,0.1c-0.4,0.1-0.8,0.4-1,0.9c-0.5,1.6-0.9,2.9-1.3,4s-0.9,1.9-1.4,2.5
		c-0.6,0.7-1.2,1.1-2,1.4c-0.8,0.2-1.8,0.4-3,0.5h-6.4c-1.2,0.1-2.2-0.1-2.8-0.4c-0.7-0.3-1.2-0.7-1.5-1.1c-0.3-0.4-0.5-0.9-0.6-1.5
		c-0.1-0.6-0.1-1.1-0.1-1.5V63.9c0-0.7,0-1.4,0.1-2c0.1-0.7,0.2-1.3,0.6-1.8c0.3-0.5,0.7-0.9,1.4-1.2c0.6-0.3,1.5-0.5,2.7-0.5
		c0.5,0,0.9-0.1,1.2-0.1c0.3-0.1,0.5-0.6,0.6-1.4c0-0.4-0.1-0.7-0.3-1.1c-0.2-0.4-0.5-0.5-1-0.5C121.4,55.4,118.4,55.5,115.5,55.5"
		/>
	<path class="st1" d="M189.9,55.5c-1.2,0-2.5,0.1-4,0.1c-1.4,0-2.8,0-4-0.1c-1.2,0-2.5-0.1-4.1-0.2c-0.5,0-0.8,0.2-1,0.5
		c-0.2,0.4-0.3,0.7-0.3,1.1c0.1,0.8,0.2,1.3,0.6,1.4c0.3,0.1,0.7,0.1,1.2,0.1c1.2,0,2.2,0.1,2.9,0.2c0.7,0.2,1.3,0.6,1.7,1.2
		c0.4,0.7,0.6,1.7,0.7,3c0.1,1.4,0.2,3.2,0.2,5.6v19c0,1.3-0.2,2.6-0.6,3.8c-0.4,1.3-1,2.4-1.9,3.5c-0.9,1.1-2.2,1.9-3.7,2.5
		c-1.5,0.6-3.5,0.9-6,0.9c-2.5,0-4.6-0.4-6.1-1.2c-1.5-0.7-2.7-1.7-3.5-2.9c-0.8-1.2-1.3-2.4-1.5-3.8c-0.2-1.4-0.4-2.7-0.4-4V63.7
		c0-0.7,0.1-1.4,0.1-2.1c0.1-0.7,0.2-1.2,0.6-1.8c0.3-0.5,0.8-0.9,1.5-1.2c0.6-0.3,1.6-0.5,2.8-0.5c0.4,0,0.7-0.1,1-0.2
		c0.2-0.1,0.4-0.6,0.4-1.3c0-0.4-0.1-0.7-0.3-1.1c-0.2-0.4-0.6-0.5-1-0.5c-3.1,0.1-6.1,0.2-9,0.2c-1.4,0-2.8,0-4.1-0.1
		c-1.4,0-2.8-0.1-4.3-0.2c-0.5,0-0.8,0.2-1,0.5c-0.2,0.4-0.3,0.7-0.3,1.1c0.1,0.8,0.2,1.3,0.6,1.4c0.3,0.1,0.7,0.1,1.2,0.1
		c1.2,0,2,0.2,2.7,0.5c0.6,0.3,1.1,0.7,1.4,1.2c0.3,0.5,0.5,1.1,0.6,1.8c0.1,0.7,0.1,1.4,0.1,2v24.6c0,1.8,0.4,3.5,1.1,5.1
		c0.7,1.7,1.9,3.2,3.3,4.5c1.4,1.3,3.2,2.3,5.4,3.2c2.2,0.8,4.7,1.2,7.5,1.2c1.9,0,3.8-0.2,5.9-0.8s3.9-1.4,5.6-2.5
		c1.7-1.2,3.1-2.7,4.2-4.5c1.1-1.8,1.7-4,1.7-6.6V67.6c0-2.3,0.1-4.1,0.2-5.4c0.1-1.3,0.4-2.3,0.8-2.9c0.4-0.6,1-1,1.8-1.2
		c0.8-0.1,1.9-0.2,3.1-0.2c0.4,0,0.7-0.1,1-0.2c0.2-0.1,0.4-0.6,0.4-1.3c0-0.4-0.1-0.7-0.3-1.1c-0.2-0.4-0.6-0.5-1-0.5
		C192.5,55.4,191.1,55.5,189.9,55.5"/>
	<path class="st1" d="M201.7,55.2c-0.6,0.1-0.8,0.5-0.8,1.4c0,0.7,0.1,1.2,0.4,1.3c0.2,0.1,0.7,0.2,1.4,0.4c1.5,0.4,2.8,0.9,4,1.7
		c1.1,0.8,2.2,2.1,3.5,4l9.2,14.5l-10.4,14.8c-0.7,1-1.3,1.7-1.8,2.4c-0.6,0.6-1.1,1.1-1.6,1.5s-1.1,0.6-1.8,0.8
		c-0.6,0.2-1.4,0.2-2.3,0.2c-0.6,0-0.9,0.1-1.2,0.1c-0.3,0.1-0.5,0.6-0.6,1.4c0,0.4,0.1,0.7,0.3,1.1c0.2,0.4,0.5,0.5,1,0.5
		c0.7-0.1,1.4-0.1,2-0.1c0.6,0,1.1-0.1,1.7-0.1s1.1-0.1,1.7-0.1h1.9c1.4,0,2.7,0,3.8,0.1c1.1,0,2.5,0.1,4,0.2c0.4,0,0.7-0.2,0.9-0.5
		c0.2-0.4,0.3-0.7,0.3-1.1c-0.1-0.8-0.2-1.3-0.6-1.4c-0.3-0.1-0.7-0.1-1.2-0.1c-0.8,0-1.5-0.1-2.2-0.1c-0.6-0.1-1.1-0.2-1.4-0.5
		c-0.3-0.2-0.4-0.6-0.4-1.1s0.3-1.1,0.9-1.9l9.2-13.2l9.2,13.2c0.7,0.9,0.8,1.7,0.4,2.5c-0.4,0.7-1.3,1.1-2.7,1.1
		c-0.5,0-0.9,0.1-1.2,0.1c-0.3,0.1-0.6,0.6-0.6,1.4c0,0.4,0.1,0.7,0.3,1.1c0.2,0.4,0.5,0.5,1,0.5c3-0.1,6-0.2,8.7-0.2
		c1.4,0,2.8,0,4.2,0.1c1.4,0,2.8,0.1,4.4,0.2c0.4,0,0.7-0.2,0.9-0.5c0.2-0.4,0.3-0.7,0.3-1.1c-0.1-0.8-0.2-1.3-0.6-1.4
		c-0.3-0.1-0.7-0.1-1.2-0.1c-1.5,0-2.8-0.6-3.8-1.6c-1-1.1-1.9-2.2-2.7-3.4l-12.5-17.9l8.4-12c0.6-0.9,1.2-1.7,1.7-2.3
		c0.5-0.7,1.1-1.2,1.6-1.5c0.6-0.4,1.2-0.6,1.9-0.8c0.7-0.2,1.5-0.2,2.3-0.2c0.5,0,0.9-0.1,1.2-0.1c0.3-0.1,0.5-0.6,0.6-1.4
		c0-0.4-0.1-0.7-0.3-1.1c-0.2-0.4-0.6-0.5-1-0.5c-0.7,0.1-1.4,0.1-2,0.1c-0.6,0-1.1,0.1-1.7,0.1s-1.1,0.1-1.7,0.1h-1.9
		c-1.4,0-2.7,0-3.8-0.1c-1.1,0-2.5-0.1-4-0.2c-0.4,0-0.7,0.2-0.9,0.5c-0.2,0.4-0.3,0.7-0.3,1.1c0.1,0.8,0.2,1.3,0.6,1.4
		c0.3,0.1,0.7,0.1,1.2,0.1c0.8,0,1.5,0.1,2.2,0.1c0.6,0.1,1.1,0.2,1.4,0.5c0.3,0.2,0.5,0.6,0.4,1.1c-0.1,0.5-0.4,1.1-0.9,1.9
		l-7.1,10.4l-5.9-9.6c-1-1.4-1.9-2.5-2.8-3.5c-0.9-1-1.9-1.7-3-2.3c-1.1-0.6-2.3-1.1-3.6-1.3c-1.3-0.2-2.8-0.4-4.5-0.4
		C202.9,55.1,202.2,55.1,201.7,55.2"/>
	<path class="st1" d="M266.2,97.6c-1.8-1.1-3.3-2.7-4.5-4.6c-1.2-1.9-2.1-4.1-2.7-6.6c-0.6-2.5-0.9-5.1-0.9-7.9
		c0-2.9,0.2-5.6,0.8-8.2s1.4-4.9,2.6-6.9c1.2-2,2.7-3.5,4.5-4.7c1.8-1.2,4-1.7,6.5-1.7c2.4,0,4.6,0.6,6.4,1.7
		c1.9,1.1,3.4,2.6,4.6,4.5c1.2,1.9,2.1,4.1,2.7,6.6c0.6,2.5,0.9,5.1,0.9,7.7c0,2.9-0.3,5.6-0.9,8.3c-0.6,2.6-1.5,4.9-2.7,6.9
		s-2.7,3.6-4.6,4.8c-1.9,1.2-4,1.8-6.6,1.8C270.1,99.3,268,98.7,266.2,97.6 M264.6,55.6c-2.7,1.1-5.2,2.7-7.4,4.8
		c-2.2,2.1-4,4.7-5.4,7.8c-1.4,3.1-2.1,6.6-2.1,10.6c0,3.1,0.6,6.1,1.6,8.9c1.1,2.8,2.6,5.4,4.6,7.5c2,2.2,4.3,4,7.2,5.3
		c2.8,1.3,6,2,9.5,2c2.6,0,5.3-0.6,8-1.7s5.3-2.7,7.5-4.8c2.2-2.1,4-4.7,5.4-7.8s2.1-6.6,2.1-10.6c0-3-0.6-5.9-1.6-8.8
		c-1.1-2.8-2.6-5.4-4.6-7.5c-2-2.2-4.4-4-7.2-5.3c-2.8-1.3-6.1-2-9.6-2C269.9,54,267.3,54.6,264.6,55.6"/>
</g>
</svg>
