<?xml version="1.0" encoding="utf-8"?>
<!-- Generator: Adobe Illustrator 25.4.1, SVG Export Plug-In . SVG Version: 6.00 Build 0)  -->
<svg version="1.1" id="Livello_1" xmlns="http://www.w3.org/2000/svg" xmlns:xlink="http://www.w3.org/1999/xlink" x="0px" y="0px"
	 viewBox="0 0 200 200" style="enable-background:new 0 0 200 200;" xml:space="preserve">
<g>
	<path d="M158.7,145.8c-7.3,7-16,10.3-26.1,10.3c-24.8-0.1-49.6,0-74.4,0c-6.5,0-12.9,0-19.4,0c-16.4-0.1-28.3-12-28.3-28.4
		c0-18.3,0-36.7,0-55c0-16.7,12-28.7,28.7-28.7c31,0,61.9,0.1,92.9,0c11.8,0,21.5,4.1,29.1,13.2c7.1,8.4,14.4,16.6,21.7,24.9
		c8.3,9.6,8.7,24.9,0.9,35c-0.9,1.2-1.9,2.4-3,3.6C173.5,129,166.1,137.4,158.7,145.8z M156.3,139.1c6-6.9,13.5-15.6,21.1-24.1
		c7.7-8.5,7.7-21.3,0.1-29.8c-6.6-7.4-13.1-14.8-19.5-22.4c-6.3-7.5-13.9-12.5-24.1-12.5c-31.7,0-63.4,0-95.1,0
		c-12.9,0-22,9.2-22,22.1c-0.1,18.5-0.1,37,0,55.5c0,12.7,9,21.9,21.7,22c31.9,0.1,63.8,0.1,95.7,0
		C142.3,149.7,149.2,146.6,156.3,139.1z"/>
	<path d="M146.4,109.5c-5.2-5.2-5.3-13.8-0.1-19c5.2-5.2,13.8-5.2,19,0c5.1,5.1,5.2,13.7,0.1,18.8
		C160.2,114.6,151.6,114.7,146.4,109.5z M160.7,105.2c2.8-2.6,3-7.2,0.3-10.1c-2.6-2.8-7-2.9-9.9-0.3c-2.9,2.5-3.1,7.2-0.4,10.1
		C153.2,107.7,157.7,107.8,160.7,105.2z"/>
</g>
</svg>
