<svg xmlns="http://www.w3.org/2000/svg" width="146.963" height="23.931" viewBox="0 0 146.963 23.931">
  <g id="Grupo_55" data-name="Grupo 55" transform="translate(-658.184 -7598.367)">
    <path id="Icon_awesome-facebook" data-name="Icon awesome-facebook" d="M24.639,12.6A12.038,12.038,0,1,0,10.72,24.493V16.08H7.662V12.6H10.72V9.948c0-3.017,1.8-4.683,4.547-4.683a18.526,18.526,0,0,1,2.695.235V8.461H16.443a1.74,1.74,0,0,0-1.962,1.88V12.6H17.82l-.534,3.48h-2.8v8.413A12.042,12.042,0,0,0,24.639,12.6Z" transform="translate(657.622 7597.804)" fill="#fff"/>
    <g id="Icon_feather-instagram" data-name="Icon feather-instagram" transform="translate(699.289 7599.977)">
      <path id="Trazado_37" data-name="Trazado 37" d="M8.178,3H18.533a5.178,5.178,0,0,1,5.178,5.178V18.533a5.178,5.178,0,0,1-5.178,5.178H8.178A5.178,5.178,0,0,1,3,18.533V8.178A5.178,5.178,0,0,1,8.178,3Z" transform="translate(-3 -3)" fill="none" stroke="#fff" stroke-linecap="round" stroke-linejoin="round" stroke-width="2"/>
      <path id="Trazado_38" data-name="Trazado 38" d="M20.3,15.47a4.142,4.142,0,1,1-3.49-3.49,4.142,4.142,0,0,1,3.49,3.49Z" transform="translate(-5.807 -5.767)" fill="none" stroke="#fff" stroke-linecap="round" stroke-linejoin="round" stroke-width="2"/>
      <path id="Trazado_39" data-name="Trazado 39" d="M26.25,9.75h0" transform="translate(-10.199 -5.09)" fill="none" stroke="#fff" stroke-linecap="round" stroke-linejoin="round" stroke-width="2"/>
    </g>
    <path id="Icon_awesome-linkedin" data-name="Icon awesome-linkedin" d="M20.193,2.25H1.548A1.56,1.56,0,0,0,0,3.818V22.428A1.56,1.56,0,0,0,1.548,24H20.193a1.564,1.564,0,0,0,1.553-1.568V3.818A1.564,1.564,0,0,0,20.193,2.25ZM6.572,20.89H3.349V10.512H6.577V20.89ZM4.961,9.094A1.869,1.869,0,1,1,6.83,7.225,1.87,1.87,0,0,1,4.961,9.094Zm13.693,11.8H15.431V15.841c0-1.2-.024-2.752-1.675-2.752-1.68,0-1.937,1.311-1.937,2.665V20.89H8.6V10.512h3.092v1.417h.044a3.4,3.4,0,0,1,3.053-1.675c3.262,0,3.869,2.15,3.869,4.946Z" transform="translate(741.519 7597.209)" fill="#fff"/>
    <path id="Icon_awesome-twitter" data-name="Icon awesome-twitter" d="M22.3,8.411c.016.221.016.442.016.662A14.393,14.393,0,0,1,7.822,23.566,14.394,14.394,0,0,1,0,21.279a10.537,10.537,0,0,0,1.23.063,10.2,10.2,0,0,0,6.324-2.176,5.1,5.1,0,0,1-4.762-3.532,6.423,6.423,0,0,0,.962.079,5.387,5.387,0,0,0,1.34-.173,5.094,5.094,0,0,1-4.084-5v-.063a5.13,5.13,0,0,0,2.3.647A5.1,5.1,0,0,1,1.735,4.311a14.478,14.478,0,0,0,10.5,5.33,5.75,5.75,0,0,1-.126-1.167,5.1,5.1,0,0,1,8.815-3.485,10.028,10.028,0,0,0,3.233-1.23A5.08,5.08,0,0,1,21.92,6.566a10.211,10.211,0,0,0,2.933-.788A10.949,10.949,0,0,1,22.3,8.411Z" transform="translate(780.294 7596.859)" fill="#fff"/>
  </g>
</svg>
