<?xml version="1.0" encoding="utf-8"?>
<!-- Generator: Adobe Illustrator 25.4.1, SVG Export Plug-In . SVG Version: 6.00 Build 0)  -->
<svg version="1.1" id="Livello_1" xmlns="http://www.w3.org/2000/svg" xmlns:xlink="http://www.w3.org/1999/xlink" x="0px" y="0px"
	 viewBox="0 0 200 200" style="enable-background:new 0 0 200 200;" xml:space="preserve">
<g>
	<path d="M54.2,50.6c-2.2-3.9-4.5-7.8-6.7-11.7c-1.9-3.3-1.7-4.1,1.6-5.9c2.9-1.7,5.9-3.4,8.8-5c2.1-1.2,3.3-0.9,4.5,1.2
		c2.4,4.2,4.8,8.3,7.2,12.4c4.2-1.3,8.2-2.6,12.3-3.7c2.6-0.7,5.3-1,7.9-1.6c0.5-0.1,1.2-0.7,1.3-1.1c0.1-2.2,0.1-4.5,0.1-7
		c-1.7,0-3.2,0-4.8,0c-2.2,0-3.2-1-3.2-3.2c0-3.8,0-7.5,0-11.3c0-2.2,1-3.2,3.3-3.2c9.1,0,18.2,0,27.3,0c2.2,0,3.2,1,3.2,3.2
		c0,3.8,0,7.5,0,11.3c0,2.3-1,3.2-3.2,3.2c-1.5,0-3,0-4.7,0c0,2.5,0,4.9,0,7.3c0,0.3,0.6,0.9,0.9,0.9c7,0.8,13.7,2.8,20.4,5.5
		c0.3-0.5,0.7-1,1-1.5c2.1-3.6,4.2-7.3,6.3-10.9c1.3-2.3,2.4-2.6,4.8-1.3c3.2,1.8,6.3,3.6,9.5,5.4c2.2,1.3,2.5,2.4,1.2,4.7
		c-2.4,4.1-4.7,8.3-7.1,12.4c21.9,17.5,32.8,40.1,30.8,68.2c-1.4,20.4-10.1,37.7-25.4,51.3c-31.9,28.4-80,25.7-108.5-5.8
		C13.6,132,16.3,79,54.2,50.6z M100.1,40.9c-39.4,0-71.7,32.1-71.7,71.3c0,39.9,32,72.1,71.5,72.1c39.7-0.1,71.7-32.1,71.7-71.7
		C171.7,73.1,139.6,40.9,100.1,40.9z M88.6,15.8c0,2.4,0,4.6,0,6.9c7.7,0,15.2,0,22.7,0c0-2.3,0-4.6,0-6.9
		C103.7,15.8,96.3,15.8,88.6,15.8z M58.6,47.6c2.1-1.2,4.1-2.4,6.1-3.6c-2-3.6-4-7-6-10.5c-2.1,1.2-4.1,2.4-6.1,3.5
		C54.7,40.7,56.6,44.2,58.6,47.6z M141.3,33.6c-2,3.6-4,7-6,10.5c2.1,1.2,4.1,2.3,6.1,3.5c2-3.5,4-7,6-10.5
		C145.4,36,143.5,34.9,141.3,33.6z M103.4,35.5c0-2.5,0-4.9,0-7.3c-2.3,0-4.5,0-6.7,0c0,2.5,0,4.9,0,7.3
		C99,35.5,101.1,35.5,103.4,35.5z"/>
	<path d="M100.1,52.8c32.9,0,59.7,26.9,59.7,59.8c0,32.9-27,59.9-59.9,59.8c-33.1-0.1-59.9-26.9-59.8-59.9
		C40.2,79.6,67.1,52.8,100.1,52.8z M74.9,64.4c1,1.7,2,3.4,3,5.2c1,1.8,0.8,3.3-0.7,4.1c-1.4,0.8-2.9,0.3-3.9-1.4
		c-1-1.7-2-3.4-3.1-5.2c-6.4,4.3-11.6,9.5-15.9,16c1.6,0.9,3.1,1.8,4.6,2.7c2.2,1.3,2.9,2.8,2,4.3c-0.9,1.5-2.4,1.6-4.6,0.4
		c-1.5-0.9-3.1-1.8-4.7-2.7c-3.6,7.1-5.6,14.3-5.9,22.2c2.1,0,4,0,5.8,0c2.2,0,3.4,1,3.5,2.7c0.1,1.7-1.2,2.8-3.5,2.8
		c-1.9,0-3.7,0-5.8,0c0.4,8.1,2.4,15.4,6.1,22.4c1.9-1.1,3.5-2.1,5.2-3.1c1.7-1,3.3-0.7,4.1,0.7c0.9,1.4,0.4,2.9-1.3,3.9
		c-1.7,1-3.4,2-5.3,3.1c4.3,6.4,9.5,11.7,16,15.9c0.9-1.5,1.6-2.8,2.4-4.1c1.7-2.9,2.9-3.5,4.5-2.6c1.7,0.9,1.7,2.5,0.1,5.2
		c-0.8,1.3-1.5,2.7-2.4,4.2c7,3.6,14.3,5.6,22.2,6c0-1.5,0-2.8,0-4.1c0-4,0.7-5.2,2.7-5.2c2,0,2.6,1.3,2.6,5.1c0,1.4,0,2.7,0,4.2
		c8-0.4,15.4-2.4,22.5-6.1c-1-1.7-2-3.3-2.9-5c-1.2-2-1-3.6,0.6-4.4c1.5-0.8,2.9-0.2,4.1,1.8c1,1.6,1.9,3.2,2.9,4.9
		c6.4-4.3,11.7-9.5,15.9-16c-1.9-1.1-3.6-2.1-5.3-3.1c-1.7-1-2.2-2.5-1.4-3.9c0.8-1.4,2.4-1.7,4.1-0.7c1.7,1,3.5,2,5.3,3
		c3.5-7,5.6-14.3,5.9-22.1c-2.2,0-4.2,0-6.1,0c-1.9-0.1-3-1.1-3.1-2.6c-0.1-1.6,1.1-2.8,3-2.9c2-0.1,4.1,0,6.3,0
		c-0.4-8.1-2.4-15.4-6-22.3c-0.3,0-0.3,0-0.4,0c-1.6,0.9-3.1,1.8-4.7,2.7c-2,1.1-3.5,0.9-4.4-0.6c-0.8-1.5-0.3-2.8,1.6-4
		c1.6-1,3.3-2,5.1-3c-4.3-6.5-9.5-11.7-16-15.9c-1.1,1.8-2.1,3.6-3.1,5.3c-1.1,1.8-2.4,2.3-3.9,1.5c-1.4-0.8-1.7-2.3-0.8-4.1
		c1-1.8,2-3.5,3.1-5.4c-7-3.6-14.3-5.6-22.2-6c0,2.1,0,4.1,0,6.1c0,2-1,3.2-2.6,3.2c-1.6,0-2.6-1.2-2.7-3.2c0-2,0-4.1,0-6.1
		C89.2,58.7,80.2,61.2,74.9,64.4z"/>
	<path d="M111.9,109.9c7.8,0,15.5,0,23.2,0c0.7,0,1.4,0,2.1,0c1.6,0.2,2.9,1.4,2.7,2.8c-0.2,1.6-1.2,2.4-2.7,2.6c-0.5,0.1-1,0-1.5,0
		c-7.2,0-14.4,0-21.7,0c-0.7,0-1.4,0-1.6,0c-1.3,2.1-2.2,4-3.6,5.6c-3.3,3.7-8.6,4.7-13.1,2.9c-4.7-1.9-7.7-6.3-7.6-11.5
		c0-4.8,3.1-9.3,7.7-11c1.4-0.5,1.7-1.2,1.7-2.5c-0.1-7.7,0-15.3,0-23c0-1.4,0.5-2.7,1.8-2.9c0.9-0.1,2.2,0.4,2.9,1
		c0.5,0.4,0.5,1.5,0.5,2.3c0,7.5,0,15.1,0,22.6c0,1.3,0.2,2,1.6,2.4C108.2,102.7,110.6,105.8,111.9,109.9z M99.9,105.9
		c-3.7,0-6.7,3-6.7,6.7c0,3.7,3.1,6.7,6.9,6.6c3.6,0,6.6-3,6.6-6.6C106.8,109,103.7,105.9,99.9,105.9z"/>
</g>
</svg>
