<?xml version="1.0" encoding="utf-8"?>
<!-- Generator: Adobe Illustrator 25.4.1, SVG Export Plug-In . SVG Version: 6.00 Build 0)  -->
<svg version="1.1" id="Livello_1" xmlns="http://www.w3.org/2000/svg" xmlns:xlink="http://www.w3.org/1999/xlink" x="0px" y="0px"
	 viewBox="0 0 200 200" style="enable-background:new 0 0 200 200;" xml:space="preserve">
<style type="text/css">
	.st0{fill:#484471;}
	.st1{fill:none;}
	.st2{fill:#D9C5A0;}
</style>
<g id="Raggruppa_153" transform="translate(2 -11)">
	<g id="Icon_awesome-twitter">
		<path class="st0" d="M137.1,91c0.1,0.9,0.1,1.7,0.1,2.6c0.2,31.5-25.1,57.2-56.6,57.4c-0.3,0-0.5,0-0.8,0c-11,0-21.7-3.1-31-9.1
			c1.6,0.2,3.2,0.3,4.9,0.2c9.1,0,17.9-3,25-8.6c-8.6-0.2-16.2-5.8-18.9-14c1.3,0.2,2.5,0.3,3.8,0.3c1.8,0,3.6-0.3,5.3-0.7
			c-9.4-1.9-16.2-10.2-16.2-19.8v-0.2c2.8,1.6,5.9,2.4,9.1,2.6c-8.9-5.9-11.6-17.7-6.2-27C65.9,87.3,81,95,97.3,95.8
			c-0.3-1.5-0.5-3.1-0.5-4.6c0-11.2,9.1-20.2,20.2-20.1c5.5,0,10.8,2.3,14.6,6.3c4.5-0.9,8.9-2.5,12.9-4.9
			c-1.5,4.7-4.7,8.6-8.9,11.1c4-0.5,7.9-1.5,11.6-3.1C144.5,84.5,141.1,88.1,137.1,91L137.1,91z"/>
	</g>
	<g id="Ellisse_13" transform="translate(1155 10442)">
		<g>
			<circle class="st1" cx="-1057" cy="-10331" r="100"/>
		</g>
		<g>
			<path class="st2" d="M-1057-10231c-55.1,0-100-44.9-100-100c0-55.1,44.9-100,100-100c55.1,0,100,44.9,100,100
				C-957-10275.9-1001.9-10231-1057-10231z M-1057-10423.9c-51.2,0-92.9,41.7-92.9,92.9s41.7,92.9,92.9,92.9s92.9-41.7,92.9-92.9
				S-1005.8-10423.9-1057-10423.9z"/>
		</g>
	</g>
</g>
</svg>
