<?xml version="1.0" encoding="utf-8"?>
<!-- Generator: Adobe Illustrator 25.4.1, SVG Export Plug-In . SVG Version: 6.00 Build 0)  -->
<svg version="1.1" id="Livello_1" xmlns="http://www.w3.org/2000/svg" xmlns:xlink="http://www.w3.org/1999/xlink" x="0px" y="0px"
	 viewBox="0 0 200 200" style="enable-background:new 0 0 200 200;" xml:space="preserve">
<style type="text/css">
	.st0{fill:#FFFFFF;}
</style>
<g id="Icon_awesome-twitter">
	<path class="st0" d="M179.4,59.2c0.1,1.8,0.1,3.5,0.1,5.3c0.5,63.9-51,116.1-114.9,116.6c-0.6,0-1.1,0-1.7,0
		c-22.3,0.1-44.2-6.3-62.9-18.4c3.3,0.4,6.6,0.5,10,0.5c18.4,0,36.4-6.1,50.9-17.5c-17.6-0.3-33-11.7-38.4-28.4
		c2.6,0.4,5.1,0.6,7.7,0.6c3.6,0,7.3-0.5,10.8-1.4C21.8,112.7,8.1,95.9,8.1,76.4v-0.5c5.7,3.2,12,5,18.5,5.2C8.6,69,3.1,45,14,26.3
		c20.8,25.6,51.5,41.2,84.5,42.8c-0.7-3.1-1-6.2-1-9.4c0.1-22.7,18.5-41,41.2-40.9c11.3,0,22,4.7,29.7,12.9c9.2-1.8,18-5.2,26-10
		c-3,9.5-9.5,17.5-18,22.6c8.2-0.9,16.1-3.1,23.6-6.3C194.4,46.2,187.4,53.4,179.4,59.2L179.4,59.2z"/>
</g>
</svg>
